<?xml version="1.0" encoding="iso-8859-1"?>
<!-- Uploaded to: SVG Repo, www.svgrepo.com, Generator: SVG Repo Mixer Tools -->
<svg height="800px" width="800px" version="1.1" id="Layer_1" xmlns="http://www.w3.org/2000/svg" xmlns:xlink="http://www.w3.org/1999/xlink" 
	 viewBox="0 0 512 512" xml:space="preserve">
<path style="fill:#CF8F3D;" d="M417.536,472.167H256H94.462c-105.31,0-140.632-236.078,51.989-299.169
	c25.111-8.225,51.392-12.316,77.811-12.73L256,159.77l31.738,0.498c26.421,0.415,52.7,4.505,77.811,12.73
	C558.168,236.088,522.846,472.167,417.536,472.167z"/>
<path style="fill:#B76700;" d="M494.652,405.84c-13.345,38.782-41.146,66.326-77.115,66.326H256H94.462
	c-35.969,0-63.769-27.543-77.115-66.326C87.019,393.062,168.681,385.709,256,385.709
	C343.317,385.709,424.979,393.063,494.652,405.84z"/>
<path d="M487.522,258.312c-24.57-43.646-65.821-75.975-119.296-93.49c-25.311-8.291-52.347-12.717-80.355-13.157l-31.738-0.498
	c-0.09-0.001-0.181-0.001-0.271,0l-23.005,0.36c0.414-0.514,0.822-1.035,1.249-1.536c13.594-15.956,21.568-37.665,21.882-59.558
	c0.334-23.405-7.884-43.673-23.142-57.069c-3.578-3.141-9.013-2.773-12.14,0.823c-3.126,3.596-2.76,9.057,0.818,12.2
	c11.39,10,17.519,25.554,17.258,43.799c-0.256,17.922-6.725,35.622-17.747,48.561c-3.486,4.092-6.622,8.596-9.379,13.392
	c-12.357,0.726-24.498,2.242-36.357,4.536c1.563-2.328,3.233-4.57,5.032-6.683c13.594-15.956,21.57-37.665,21.884-59.558
	c0.336-23.405-7.884-43.673-23.142-57.069c-3.578-3.141-9.013-2.773-12.14,0.823c-3.126,3.596-2.76,9.057,0.818,12.2
	c11.39,10,17.519,25.554,17.258,43.799c-0.256,17.922-6.726,35.621-17.75,48.562c-5.79,6.799-10.627,14.725-14.329,23.267
	c-3.076,0.881-6.131,1.814-9.159,2.806c-53.475,17.515-94.726,49.843-119.296,93.49C3.518,295.546-4.355,339.047,2.309,380.8
	c9.543,59.795,46.577,99.97,92.154,99.97h323.075c45.577,0,82.61-40.175,92.155-99.97
	C516.354,339.047,508.481,295.546,487.522,258.312z M492.698,378.088c-8.159,51.125-38.365,85.475-75.161,85.475H94.461
	c-36.797,0-67.002-34.349-75.161-85.475C7.738,305.643,42.712,217.286,146.608,182.027c-5.488,26.774-0.051,55.645,21.144,74.251
	c1.631,1.431,3.649,2.135,5.657,2.135c2.397,0,4.783-1.001,6.483-2.958c3.126-3.596,2.76-9.057-0.819-12.2
	c-11.636-10.215-17.772-25.929-17.278-44.25c0.206-7.659,1.572-15.312,3.945-22.605c12.281-3.062,24.939-5.202,37.887-6.405
	c-10.026,29.781-6.525,64.842,17.898,86.283c1.631,1.431,3.649,2.135,5.657,2.135c2.397,0,4.783-1.001,6.483-2.958
	c3.126-3.596,2.76-9.057-0.819-12.2c-11.637-10.216-17.774-25.93-17.28-44.25c0.279-10.332,2.663-20.652,6.797-30.088
	c0.679-0.016,1.355-0.04,2.035-0.051l31.602-0.496l31.602,0.496c26.279,0.413,51.602,4.552,75.269,12.304
	c16.471,5.394,31.238,12.111,44.394,19.879l-43.62,42.793c-3.401,3.336-3.466,8.809-0.146,12.226
	c1.686,1.736,3.921,2.606,6.157,2.606c2.167,0,4.336-0.817,6.01-2.46l46.394-45.513c9.412,6.769,17.833,14.134,25.312,21.959
	l-80.686,80.299c-3.376,3.36-3.403,8.834-0.059,12.227c1.682,1.708,3.897,2.562,6.114,2.562c2.187,0,4.376-0.833,6.054-2.503
	l79.894-79.512c6.795,8.705,12.563,17.842,17.372,27.256l-44.081,45.045c-3.332,3.405-3.287,8.879,0.102,12.227
	c1.676,1.655,3.854,2.481,6.032,2.481c2.226,0,4.451-0.863,6.134-2.583l39.341-40.202
	C494.623,319.022,497.218,349.771,492.698,378.088z M430.605,395.836c-0.547,4.719-4.811,8.107-9.535,7.558
	c-52.13-6.027-107.112-9.082-163.417-9.082c-57.515,0-113.602,3.184-166.702,9.466c-0.342,0.041-0.684,0.06-1.021,0.06
	c-4.301,0-8.015-3.219-8.534-7.594c-0.559-4.719,2.814-8.997,7.534-9.555c53.767-6.36,110.533-9.586,168.723-9.586
	c56.964,0,112.611,3.094,165.394,9.196C427.766,386.847,431.15,391.116,430.605,395.836z"/>
</svg>