<?xml version="1.0" encoding="iso-8859-1"?>
<!-- Uploaded to: SVG Repo, www.svgrepo.com, Generator: SVG Repo Mixer Tools -->
<svg height="800px" width="800px" version="1.1" id="Layer_1" xmlns="http://www.w3.org/2000/svg" xmlns:xlink="http://www.w3.org/1999/xlink" 
	 viewBox="0 0 512 512" xml:space="preserve">
<path style="fill:#FFEE5E;" d="M66.5,503.395c0-31.976-25.913-57.898-57.895-57.898V8.605H127.81
	c0,39.206,31.785,70.986,70.989,70.986s70.988-31.781,70.988-70.986h233.608v176.681c-23.442,0-42.444,18.999-42.444,42.436
	s19.002,42.435,42.444,42.435v233.239H66.5L66.5,503.395z"/>
<path style="fill:#FCE047;" d="M460.951,227.723c0,23.437,19.002,42.435,42.444,42.435v233.238H66.5
	c0-15.94-6.441-30.373-16.862-40.843L503.395,8.795v176.49C479.953,185.286,460.951,204.286,460.951,227.723z"/>
<g>
	<path style="fill:#F4BB19;" d="M103.583,199.984c-14.427,0-26.11-11.69-26.11-26.109c0-14.42,11.681-26.11,26.11-26.11
		c14.415,0,26.11,11.69,26.11,26.11C129.693,188.294,117.999,199.984,103.583,199.984z"/>
	<circle style="fill:#F4BB19;" cx="338.469" cy="383.753" r="42.436"/>
</g>
<path d="M503.395,193.891c4.752,0,8.605-3.853,8.605-8.605V8.605C512,3.853,508.147,0,503.395,0H269.786
	c-4.752,0-8.605,3.853-8.605,8.605c0,34.398-27.986,62.381-62.383,62.381c-34.399,0-62.384-27.985-62.384-62.381
	c0-4.752-3.853-8.605-8.605-8.605H8.605C3.853,0,0,3.853,0,8.605v436.892c0,4.752,3.853,8.605,8.605,8.605
	c27.179,0,49.29,22.113,49.29,49.293c0,4.752,3.853,8.605,8.605,8.605h436.895c4.752,0,8.605-3.853,8.605-8.605V270.156
	c0-4.752-3.853-8.605-8.605-8.605c-18.659,0-33.839-15.175-33.839-33.829C469.556,209.067,484.736,193.891,503.395,193.891z
	 M494.79,278.036V494.79H74.551c-3.868-29.8-27.542-53.476-57.341-57.343V17.21h102.456c4.303,39.856,38.15,70.986,79.132,70.986
	s74.829-31.13,79.132-70.986h216.86v160.197c-24.065,4.101-42.444,25.104-42.444,50.316
	C452.346,252.933,470.725,273.934,494.79,278.036z M103.584,139.16c-19.142,0-34.715,15.574-34.715,34.715
	s15.574,34.714,34.715,34.714s34.714-15.573,34.714-34.714S122.726,139.16,103.584,139.16z M103.584,191.379
	c-9.653,0-17.505-7.852-17.505-17.504s7.853-17.505,17.505-17.505c9.653,0,17.504,7.853,17.504,17.505
	S113.236,191.379,103.584,191.379z M338.462,332.709c-28.144,0-51.04,22.896-51.04,51.04c0,28.145,22.896,51.042,51.04,51.042
	c28.144,0,51.04-22.897,51.04-51.042C389.502,355.606,366.606,332.709,338.462,332.709z M338.462,417.581
	c-18.654,0-33.83-15.176-33.83-33.832c0-18.654,15.176-33.83,33.83-33.83c18.654,0,33.83,15.176,33.83,33.83
	C372.292,402.404,357.116,417.581,338.462,417.581z M293.217,256.001c0-4.753,3.853-8.605,8.605-8.605h2.359
	c4.752,0,8.605,3.852,8.605,8.605c0,4.752-3.853,8.605-8.605,8.605h-2.359C297.069,264.606,293.217,260.753,293.217,256.001z
	 M129.973,368.649c0,4.752-3.853,8.605-8.605,8.605h-2.359c-4.752,0-8.605-3.853-8.605-8.605c0-4.753,3.853-8.605,8.605-8.605h2.359
	C126.12,360.044,129.973,363.896,129.973,368.649z M404.969,113.21c0,4.753-3.853,8.605-8.605,8.605h-2.359
	c-4.752,0-8.605-3.852-8.605-8.605c0-4.752,3.853-8.605,8.605-8.605h2.359C401.117,104.605,404.969,108.458,404.969,113.21z"/>
</svg>