<?xml version="1.0" encoding="iso-8859-1"?>
<!-- Uploaded to: SVG Repo, www.svgrepo.com, Generator: SVG Repo Mixer Tools -->
<svg height="800px" width="800px" version="1.1" id="Layer_1" xmlns="http://www.w3.org/2000/svg" xmlns:xlink="http://www.w3.org/1999/xlink" 
	 viewBox="0 0 512.001 512.001" xml:space="preserve">
<path style="fill:#7C3632;" d="M376.373,216.92c48.297-74.74,163.668-2.233,115.376,72.501
	c-51.456,79.612-139.939,127.88-235.749,127.88S71.711,369.031,20.25,289.42c-48.292-74.734,67.082-147.239,115.379-72.501
	c26.253,40.616,71.585,64.904,120.371,64.904C304.788,281.823,350.123,257.536,376.373,216.92L376.373,216.92z"/>
<path style="fill:#633630;" d="M467.84,229.765c-1.648,4.38-3.771,8.795-6.449,13.22c-48.19,79.612-131.058,127.88-220.789,127.88
	c-89.731,0-172.593-48.268-220.789-127.88c-2.678-4.425-4.8-8.839-6.449-13.218c17.385-44.333,82.082-66.423,114.506-12.847
	c24.587,40.617,67.042,64.904,112.732,64.904c45.693,0,88.15-24.286,112.735-64.904C385.76,163.344,450.455,185.433,467.84,229.765z
	"/>
<path style="fill:#B93B3E;" d="M376.373,126.129c48.297-74.74,163.668-2.233,115.376,72.501
	c-51.456,79.612-139.939,127.88-235.749,127.88S71.711,278.24,20.25,198.629c-48.292-74.734,67.082-147.239,115.379-72.501
	c26.253,40.616,71.585,64.904,120.371,64.904C304.788,191.031,350.123,166.745,376.373,126.129L376.373,126.129z"/>
<path style="fill:#9D3632;" d="M491.749,198.629c-51.456,79.612-139.939,127.88-235.749,127.88
	c-95.812,0-184.289-48.268-235.749-127.88c-23.992-37.129-7.581-73.699,20.925-91.945C40.094,119.93,42.873,134.306,51,148.77
	c44.749,79.612,121.685,127.88,204.999,127.88s160.256-48.268,205-127.88c8.127-14.465,10.906-28.841,9.825-42.087
	C499.331,124.929,515.741,161.5,491.749,198.629z"/>
<path d="M498.975,203.298c15.702-24.299,17.261-50.698,4.391-74.338c-13.957-25.637-42.968-42.86-72.189-42.86
	c-25.265,0-47.294,12.559-62.028,35.36c-24.674,38.177-66.972,60.97-113.149,60.97c-46.172,0-88.469-22.793-113.146-60.969
	c-14.735-22.802-36.764-35.361-62.029-35.361c-29.22,0-58.23,17.227-72.189,42.864c-12.87,23.639-11.311,50.038,4.388,74.336
	c1.082,1.674,2.187,3.331,3.303,4.981c-16.516,20.633-24.942,52.322-3.303,85.81c26.061,40.317,62.149,73.75,104.362,96.684
	c42.301,22.981,90.233,35.129,138.613,35.129c48.381,0,96.313-12.148,138.615-35.129c42.215-22.935,78.302-56.368,104.361-96.685
	c18.327-28.362,16.928-60.77-3.298-85.818C496.791,206.624,497.894,204.969,498.975,203.298z M23.747,137.19
	c11.035-20.268,33.973-33.886,57.078-33.886c13.6,0,32.894,4.77,47.579,27.494c27.86,43.102,75.56,68.836,127.596,68.836
	c52.04,0,99.741-25.734,127.599-68.837c14.684-22.724,33.978-27.493,47.578-27.493c23.107,0,46.044,13.617,57.078,33.882
	c9.718,17.849,8.393,38.013-3.73,56.773C434.363,271.571,348.932,317.907,256,317.907c-92.927,0-178.357-46.336-228.524-123.947
	C15.353,175.2,14.029,155.039,23.747,137.19z M484.525,284.749c-50.163,77.612-135.592,123.948-228.525,123.948
	c-92.928,0-178.357-46.336-228.524-123.947c-13.451-20.816-13.48-43.293-0.606-61.901c24.414,31.608,55.335,58.018,90.517,77.133
	c42.301,22.982,90.233,35.13,138.613,35.13c48.381,0,96.313-12.148,138.615-35.13c35.178-19.112,66.095-45.518,90.506-77.119
	C497.946,241.496,497.896,264.057,484.525,284.749z M112.157,224.249c3.531-4.745,10.264-5.747,15.04-2.239
	c36.35,26.703,82.093,41.409,128.803,41.409c5.939,0,10.753,4.783,10.753,10.684c0,5.901-4.814,10.683-10.753,10.683
	c-51.279,0-101.564-16.193-141.588-45.594C109.635,235.683,108.627,228.994,112.157,224.249z M64.811,188.558
	c-3.385-4.849-2.173-11.505,2.708-14.869c4.881-3.364,11.58-2.158,14.964,2.69c1.339,1.916,2.738,3.844,4.16,5.729
	c3.561,4.722,2.596,11.418-2.156,14.957c-1.933,1.44-4.197,2.135-6.44,2.135c-3.271,0-6.5-1.476-8.613-4.278
	C67.855,192.83,66.3,190.688,64.811,188.558z"/>
</svg>