<svg xmlns="http://www.w3.org/2000/svg" viewBox="0 0 750 500"><g id="freepik--background-complete--inject-38"><path d="M318.31,360.89a29.64,29.64,0,0,0-12.69-4.37c-2.07-.21-4.34-.15-6,1.1a1.26,1.26,0,0,0-.62,1.1,1.35,1.35,0,0,0,.59.75,18.13,18.13,0,0,0,18.72,1.42" style="fill:#e0e0e0"></path><path d="M318,360.53a61.25,61.25,0,0,1-8.2-7.21,20.78,20.78,0,0,1-5.14-9.5,3.81,3.81,0,0,1,.41-3.18c6.53,5.1,11.66,11.7,12.93,19.89" style="fill:#e0e0e0"></path><path d="M318.24,360.84a29.7,29.7,0,0,1,.16-10.76,14.54,14.54,0,0,1,5.73-8.88c1.13,2.64.64,5.68-.15,8.44a40.87,40.87,0,0,1-5.69,12" style="fill:#e0e0e0"></path><path d="M324.65,372.32a18.75,18.75,0,0,0-10.18,5.15,19.27,19.27,0,0,0-5.82,10c3.82-.24,7.05-2.93,9.4-5.94s4-6.33,6.55-9.15" style="fill:#e0e0e0"></path><path d="M326,374.15a25.09,25.09,0,0,1,2.9-23.74c2.21,7.88,1.4,16.78-2.9,23.74" style="fill:#e0e0e0"></path><path d="M334.5,384.23a18.11,18.11,0,0,0-17.35,10,1,1,0,0,0,1,1.7c3.42-.23,6.45-2.28,8.95-4.63s4.68-5.05,7.45-7.07" style="fill:#e0e0e0"></path><path d="M334.23,383.68a32.35,32.35,0,0,1-.32-18.06c.64-2.32,1.7-4.77,3.85-5.86a.59.59,0,0,1,1,.33,10.8,10.8,0,0,1,.91,5.18,32.07,32.07,0,0,1-.81,5.24c-.68,3.21-1,6.65-2.79,9.42a17.82,17.82,0,0,0-1.12,2.06c-.33.71-.34.95-.64,1.51" style="fill:#e0e0e0"></path><path d="M356.63,387a23.26,23.26,0,0,1,4.08-19.14c.29-.39.68-.79,1.16-.75.73.07.92,1,.89,1.78A34.62,34.62,0,0,1,356.63,387" style="fill:#e0e0e0"></path><path d="M358.65,388.4a27.88,27.88,0,0,0,22.85-4.65,18.51,18.51,0,0,0-12.37-1.52c-4.13.95-7.91,2.8-10.48,6.17" style="fill:#e0e0e0"></path><path d="M360.35,384.19a26.43,26.43,0,0,1,20.74-12c-.95,3.34-3.69,5.93-6.78,7.5a37.55,37.55,0,0,1-10,2.91c-1.32.26-3.14.54-4,1.58" style="fill:#e0e0e0"></path><path d="M357.06,363.8a60.61,60.61,0,0,0,2.65-12.15,20.2,20.2,0,0,0-2.42-12c-4,7.77-4.42,16.84-.35,24.57" style="fill:#e0e0e0"></path><path d="M370.57,357c4.69-8.53,14.26-15.34,23.95-16.29-3.74,9.3-13.93,16.49-23.95,16.29" style="fill:#e0e0e0"></path><path d="M367.61,358.64c7,1.07,13,5.54,19.5,8.25a8.71,8.71,0,0,0,4.41.84,3.45,3.45,0,0,0,2.16-6.1,9.53,9.53,0,0,0-3.2-1.95c-7.12-3-14.76-3-22.26-1.24" style="fill:#e0e0e0"></path><path d="M363.57,363.55c1.58.45,2.12,1.27,3.38,2.34a36.41,36.41,0,0,0,14.78,7.6c.57.14,1.31.19,1.59-.32s-.07-1-.39-1.38a20.35,20.35,0,0,0-8.92-6.06c-3.42-1.27-6.37-2.8-10.44-2.47" style="fill:#e0e0e0"></path><path d="M359,333.91a28,28,0,0,0,21.45,7.3,1.52,1.52,0,0,0,1-.35c.54-.59-.11-1.5-.74-2-6.31-4.92-13.95-6.95-21.69-5" style="fill:#e0e0e0"></path><path d="M364.41,331.92a29.91,29.91,0,0,1,26.77-4.41,21.26,21.26,0,0,1-12.75,5.6,40.2,40.2,0,0,1-14-1.19" style="fill:#e0e0e0"></path><path d="M362.26,318.3c-.62-6.29-.22-11.26-.65-17.59,0-.5-.15-1.11-.62-1.29-.66-.26-1.21.55-1.42,1.23a20.16,20.16,0,0,0,2.68,17.52" style="fill:#e0e0e0"></path><path d="M361.81,319a37.15,37.15,0,0,0,10.43-10.14c2.06-2.81,3.79-6.19,3.32-9.65A10,10,0,0,0,368,303a20.84,20.84,0,0,0-3.83,7.71c-.84,2.77-1.42,5.62-2.4,8.34" style="fill:#e0e0e0"></path><path d="M372.05,316.15A84,84,0,0,0,397.72,301c-3.07-1.24-6.58-.5-9.64.74a30.39,30.39,0,0,0-16.16,14.32" style="fill:#e0e0e0"></path><path d="M364.69,322.44a51.92,51.92,0,0,0,14.25.07c4.62-.77,9-2.6,13.3-4.42a1.59,1.59,0,0,0,.91-.68,1,1,0,0,0-.33-1.14,2.74,2.74,0,0,0-1.13-.53c-4.7-1.32-9.76-.7-14.38.86a66.25,66.25,0,0,0-12.62,5.84" style="fill:#e0e0e0"></path><path d="M337.64,334.12a25.14,25.14,0,0,1-.23-20.86c2,3,2.2,6.81,1.84,10.37s-1.44,7.24-1.51,10.82" style="fill:#e0e0e0"></path><path d="M324.72,327.61a29.09,29.09,0,0,0-21.62,9.21,20.21,20.21,0,0,0,11.84-2.19,60.71,60.71,0,0,0,10.15-6.79" style="fill:#e0e0e0"></path><path d="M316,324.71c-4-.32-7.74-.81-11.54.35a13.83,13.83,0,0,0-8.8,7.46,20.84,20.84,0,0,0,10.82-2,62.36,62.36,0,0,0,9.52-5.77" style="fill:#e0e0e0"></path><path d="M328.9,324.84c-3.56-2.33-7.2-4.7-11.34-5.66s-8.93-.25-11.81,2.86c3.35,2,7.41,2.2,11.29,2.2s8.64-.05,12.3,1.25" style="fill:#e0e0e0"></path><path d="M328.92,325c-6.07-6-8.38-16.68-5.93-24.83A37.84,37.84,0,0,1,328.92,325" style="fill:#e0e0e0"></path><path d="M345.61,308.13c1.15-2.66,1.95-5.45,3-8.16a23.54,23.54,0,0,1,4.25-7.53,11.2,11.2,0,0,1,7.52-3.9,30.3,30.3,0,0,1-14.6,19.64" style="fill:#e0e0e0"></path><path d="M342.59,311.65c-1.89-2.6-4.08-6.14-6.65-8.09s-5.92-3.13-9.05-2.38a21.05,21.05,0,0,0,15.7,10.47" style="fill:#e0e0e0"></path><path d="M343.2,308.35a44.45,44.45,0,0,1-3-9.7,15.11,15.11,0,0,1,1.52-9.86c3.33,6.3,4.41,13.06,1.65,19.63" style="fill:#e0e0e0"></path><path d="M345.64,288.79c1.89-6.25,7.61-10.85,13.78-13a5.19,5.19,0,0,1,2.42-.36,2.1,2.1,0,0,1,1.78,1.49c.23,1.06-.65,2-1.48,2.72a46.89,46.89,0,0,1-16.5,9.11" style="fill:#e0e0e0"></path><path d="M345.71,283.68c.24-4,.49-8.11,1.8-11.93s3.84-7.39,7.51-9.06c.62,4.06-1.17,8.11-3.33,11.61s-4.78,6.8-6.08,10.71" style="fill:#e0e0e0"></path><path d="M345.61,286.45c-1.56-4.55-1.72-10.33-4.44-14.3-1.91-2.77-5-4.66-6.6-7.59a11.55,11.55,0,0,0,.38,8.62,25.19,25.19,0,0,0,5,7.22c2,2.15,3.75,3.77,5.62,6.05" style="fill:#e0e0e0"></path><path d="M345.64,420.5c-.12,0-.22-30.37-.23-67.82s.08-67.81.2-67.81.23,30.35.24,67.81S345.76,420.5,345.64,420.5Z" style="fill:#e0e0e0"></path><path d="M372.18,329.54A6.49,6.49,0,0,1,371,330L367.9,331c-2.65.9-6.29,2.21-10.24,3.83s-7.6,3-9.7,4.86A7.16,7.16,0,0,0,346,342.3c-.3.71-.36,1.14-.4,1.14a1,1,0,0,1,0-.32,4.15,4.15,0,0,1,.22-.89,6.86,6.86,0,0,1,1.9-2.74,17.08,17.08,0,0,1,4.21-2.62c1.68-.78,3.55-1.6,5.53-2.42,4-1.62,7.63-2.89,10.31-3.72,1.34-.41,2.43-.72,3.19-.92A6.56,6.56,0,0,1,372.18,329.54Z" style="fill:#e0e0e0"></path><path d="M380.88,308.18a1.83,1.83,0,0,1-.32.34l-1,.91c-.9.83-2.13,1.94-3.64,3.31l-12.1,10.78c-4.73,4.2-8.81,8.22-11.64,11.25-1.42,1.51-2.54,2.76-3.3,3.64-.35.4-.64.74-.88,1s-.31.35-.33.34a1.87,1.87,0,0,1,.26-.39c.19-.25.46-.61.82-1.06.72-.91,1.81-2.2,3.2-3.74a153.39,153.39,0,0,1,11.58-11.37c4.74-4.2,9.05-8,12.19-10.68l3.73-3.2,1-.86A1.86,1.86,0,0,1,380.88,308.18Z" style="fill:#e0e0e0"></path><path d="M358.74,327.8c-.13-.06.86-2.34,1.84-5.22s1.46-5.32,1.59-5.3a18.18,18.18,0,0,1-1.17,5.44,36.37,36.37,0,0,1-1.47,3.65A6,6,0,0,1,358.74,327.8Z" style="fill:#e0e0e0"></path><path d="M345.67,346.17a5.66,5.66,0,0,1-.73-.84c-.49-.64-1.12-1.44-1.86-2.39-1.57-2-3.74-4.83-6.16-7.89s-4.67-5.8-6.28-7.79c-.77-.94-1.4-1.73-1.91-2.36a5.38,5.38,0,0,1-.66-.9,5.05,5.05,0,0,1,.79.79c.49.53,1.17,1.3,2,2.27,1.68,1.94,4,4.66,6.39,7.72s4.56,5.89,6.07,8c.75,1,1.35,1.88,1.75,2.48A5.63,5.63,0,0,1,345.67,346.17Z" style="fill:#e0e0e0"></path><path d="M339.85,338.7a10.64,10.64,0,0,1-2.43-4.56,13.16,13.16,0,0,1-.56-4.6l.2,0c-.09.35-.15.53-.19.53s0-.2,0-.56h.2a20.57,20.57,0,0,0,.78,4.48A33.55,33.55,0,0,0,339.85,338.7Z" style="fill:#e0e0e0"></path><path d="M332.34,329.26a7.42,7.42,0,0,0-1.7-1,11.38,11.38,0,0,0-4.72-.38,28.84,28.84,0,0,0-4.76.77,14.3,14.3,0,0,1-2,.47,6.94,6.94,0,0,1,1.87-.77,21.57,21.57,0,0,1,4.81-.91,10.43,10.43,0,0,1,4.88.53A3,3,0,0,1,332.34,329.26Z" style="fill:#e0e0e0"></path><path d="M330.56,327c0,.06-1-.4-2.61-1a26.3,26.3,0,0,0-13.13-1c-1.69.31-2.7.62-2.73.55a2.65,2.65,0,0,1,.7-.3,15.74,15.74,0,0,1,2-.55,23.06,23.06,0,0,1,6.73-.47,23.34,23.34,0,0,1,6.58,1.49,14.73,14.73,0,0,1,1.86.84A2.33,2.33,0,0,1,330.56,327Z" style="fill:#e0e0e0"></path><path d="M345.61,317.28a54.72,54.72,0,0,1-1.9-6.6,53.29,53.29,0,0,1-1.47-6.72,58.34,58.34,0,0,1,1.9,6.61A53.36,53.36,0,0,1,345.61,317.28Z" style="fill:#e0e0e0"></path><path d="M345.73,317.28a31.59,31.59,0,0,0-2.1-3.95,17.08,17.08,0,0,0-3.11-3.2,2.74,2.74,0,0,1,1.2.61,9.6,9.6,0,0,1,2.27,2.34A8.7,8.7,0,0,1,345.73,317.28Z" style="fill:#e0e0e0"></path><path d="M345.64,404.31s-.13-.73-.48-2a28.31,28.31,0,0,0-2-5.26,73,73,0,0,0-10.77-15.16c-2.4-2.75-4.74-5.34-6.72-7.82a55.25,55.25,0,0,1-4.8-6.93,33,33,0,0,1-2.42-5.13c-.22-.64-.39-1.13-.48-1.47a2.22,2.22,0,0,1-.12-.53s.26.7.76,1.93a37.18,37.18,0,0,0,2.53,5.05A58.83,58.83,0,0,0,326,373.8c2,2.45,4.32,5,6.73,7.78a69.33,69.33,0,0,1,10.72,15.32,26.56,26.56,0,0,1,1.91,5.35,14.33,14.33,0,0,1,.27,1.52A2.2,2.2,0,0,1,345.64,404.31Z" style="fill:#e0e0e0"></path><path d="M369.62,377.23a10.7,10.7,0,0,1-1.26.7,28.35,28.35,0,0,0-3.25,2.16,37.9,37.9,0,0,0-4.29,3.9c-1.5,1.59-3.05,3.43-4.63,5.41-3.15,4-6.11,7.47-7.88,10.27a38.8,38.8,0,0,0-2,3.38,10,10,0,0,1-.7,1.26,1.48,1.48,0,0,1,.12-.36c.09-.22.22-.56.42-1a31.58,31.58,0,0,1,1.87-3.47,114,114,0,0,1,7.8-10.38c1.59-2,3.15-3.82,4.68-5.41a35.08,35.08,0,0,1,4.39-3.87,23.19,23.19,0,0,1,3.37-2.06,9.94,9.94,0,0,1,1-.43C369.49,377.26,369.62,377.21,369.62,377.23Z" style="fill:#e0e0e0"></path><path d="M370.09,386a16.9,16.9,0,0,1-2.66.39,34.46,34.46,0,0,0-6.29,1.24,18.82,18.82,0,0,0-5.65,3c-1.3,1-1.91,1.84-2,1.79a2.13,2.13,0,0,1,.39-.61,9.87,9.87,0,0,1,1.39-1.42,17.22,17.22,0,0,1,5.7-3.14,28.36,28.36,0,0,1,6.4-1.13A15.75,15.75,0,0,1,370.09,386Z" style="fill:#e0e0e0"></path><path d="M354.3,391.42c-.14-.08,1.06-1.9,2-4.36s1.08-4.66,1.24-4.64a4.54,4.54,0,0,1,0,1.43,15.16,15.16,0,0,1-.77,3.36,17,17,0,0,1-1.54,3.07A4.26,4.26,0,0,1,354.3,391.42Z" style="fill:#e0e0e0"></path><path d="M377.39,353.64a2.73,2.73,0,0,1-.43.23l-1.25.56c-.54.24-1.21.53-1.95.93s-1.63.78-2.54,1.33l-1.45.83c-.5.29-1,.63-1.53,1-1.07.65-2.14,1.45-3.28,2.26a56,56,0,0,0-12.63,13.07c-.78,1.17-1.54,2.27-2.15,3.36-.32.54-.64,1.05-.91,1.56l-.78,1.48c-.51.93-.88,1.82-1.24,2.58s-.65,1.43-.86,2-.39.93-.53,1.26a1.79,1.79,0,0,1-.21.44,2.15,2.15,0,0,1,.13-.47l.45-1.29a21.53,21.53,0,0,1,.79-2c.34-.77.69-1.68,1.2-2.62l.75-1.5c.27-.52.59-1,.89-1.58.61-1.11,1.36-2.22,2.13-3.41a58.87,58.87,0,0,1,5.81-7.12,58.23,58.23,0,0,1,6.92-6c1.16-.82,2.24-1.61,3.33-2.25.53-.32,1-.66,1.55-.95l1.47-.8c.93-.53,1.82-.91,2.58-1.28a20.33,20.33,0,0,1,2-.86l1.28-.5A2.55,2.55,0,0,1,377.39,353.64Z" style="fill:#e0e0e0"></path><path d="M358.41,366.35a3,3,0,0,1,1-1.55,6.56,6.56,0,0,1,4.21-1.61,11.38,11.38,0,0,1,4.42.86,6.57,6.57,0,0,1,1.68.81,9.21,9.21,0,0,1-1.78-.52,13.29,13.29,0,0,0-4.31-.71,6.76,6.76,0,0,0-4,1.41A14.24,14.24,0,0,0,358.41,366.35Z" style="fill:#e0e0e0"></path><path d="M355.57,369.28a16.08,16.08,0,0,0,1.2-3.88,15.65,15.65,0,0,0-.27-4.06,2.46,2.46,0,0,1,.49,1.13,7.83,7.83,0,0,1,.21,3,7.54,7.54,0,0,1-.89,2.84C355.94,369,355.62,369.31,355.57,369.28Z" style="fill:#e0e0e0"></path><path d="M324.67,408.66c.66,11.61,4.15,23.41,9.53,35.34h23.39c5.13-11.81,8.39-23.6,9-35.34Z" style="fill:#e0e0e0"></path><path d="M362.76,427.44c0,.12-7.7.22-17.19.22s-17.21-.1-17.21-.22,7.7-.22,17.21-.22S362.76,427.32,362.76,427.44Z" style="fill:#fafafa"></path><path d="M362.24,431.64c0,.12-7.22.22-16.12.22s-16.13-.1-16.13-.22,7.22-.22,16.13-.22S362.24,431.52,362.24,431.64Z" style="fill:#fafafa"></path><path d="M334.58,416.28a66.14,66.14,0,0,1,0,10.78,66.14,66.14,0,0,1,0-10.78Z" style="fill:#fafafa"></path><path d="M347.11,416.28a70.87,70.87,0,0,1,0,11.16,70.87,70.87,0,0,1,0-11.16Z" style="fill:#fafafa"></path><path d="M358.88,416.19a77.19,77.19,0,0,1,0,11.38,73.69,73.69,0,0,1,0-11.38Z" style="fill:#fafafa"></path><path d="M365.81,416.28c0,.12-9,.22-20.17.22s-20.17-.1-20.17-.22,9-.22,20.17-.22S365.81,416.16,365.81,416.28Z" style="fill:#fafafa"></path><rect x="435.95" y="320.37" width="38.76" height="10.25" style="fill:#ebebeb"></rect><path d="M457,341.09a1.23,1.23,0,0,1,0-.18v-.53c0-.48,0-1.15,0-2,0-1.77,0-4.31-.07-7.52l.12.12-38.75.08c.08-.09-.2.19.19-.2h0v10.23l-.2-.19,27.62.09L454,341l2.2,0H457s0,0-.18,0h-.55l-2.16,0-8.11.06-27.76.09h-.19V330.86h0l.2-.2,38.75.08h.12v.12c0,3.24-.05,5.81-.06,7.59,0,.86,0,1.52,0,2,0,.2,0,.37,0,.5S457,341.1,457,341.09Z" style="fill:#e0e0e0"></path><rect x="202.65" y="43.08" width="38.76" height="10.25" style="fill:#f5f5f5"></rect><rect x="629.68" y="68.76" width="38.76" height="10.25" style="fill:#f5f5f5"></rect><path d="M90.53,104.74a.86.86,0,0,1,0-.19V104q0-.72,0-2c0-1.77,0-4.32-.07-7.53l.12.12-38.75.08c.09-.09-.2.2.19-.2h0v10.24l-.19-.2,27.62.09,8.15.06,2.2,0h.58l.21,0h-.74l-2.16,0-8.11,0-27.75.09h-.2V94.5h0c.39-.39.11-.11.2-.19l38.75.07h.13v.12c0,3.24-.06,5.81-.07,7.6,0,.85,0,1.51,0,2,0,.21,0,.37,0,.5S90.53,104.74,90.53,104.74Z" style="fill:#e0e0e0"></path><path d="M595.66,225.38a1.7,1.7,0,0,1,0-.19c0-.14,0-.31,0-.53q0-.72,0-2c0-1.77,0-4.32-.07-7.53l.12.12-38.75.08c.08-.09-.2.2.19-.2h0v10.24l-.2-.2,27.62.09,8.16.06,2.2,0h.58l.2,0h-.73l-2.16,0-8.11,0-27.76.09h-.19V215.14h0c.39-.39.11-.11.2-.19l38.75.07h.12v.12c0,3.24,0,5.81-.06,7.6,0,.85,0,1.51,0,2,0,.21,0,.37,0,.5S595.67,225.38,595.66,225.38Z" style="fill:#e0e0e0"></path><path d="M512.87,58.47a1.7,1.7,0,0,1,0-.19c0-.13,0-.31,0-.52,0-.49,0-1.16,0-2,0-1.77,0-4.32-.07-7.52l.12.12-38.76.07c.09-.09-.2.2.2-.19h0v5.2c0,1.71,0,3.39,0,5l-.19-.19,27.62.08,8.15.06,2.21,0,.58,0h-.53l-2.16,0-8.11,0-27.76.09h-.19v-.19c0-1.65,0-3.33,0-5v-5.2h0l.2-.2,38.76.07H513v.12c0,3.23,0,5.8-.07,7.59,0,.85,0,1.51,0,2,0,.21,0,.37,0,.51A.92.92,0,0,1,512.87,58.47Z" style="fill:#e0e0e0"></path><path d="M533.34,413.8a.58.58,0,0,1,0-.19c0-.13,0-.31,0-.52,0-.49,0-1.16,0-2,0-1.77,0-4.32-.06-7.52l.12.12-38.76.07.2-.19h0v5.2c0,1.71,0,3.39,0,5l-.19-.19,27.62.08,8.15.06,2.21,0,.57,0h-.52l-2.17,0-8.11,0-27.75.09h-.19v-.19c0-1.65,0-3.33,0-5v-5.2h0l.2-.2,38.76.08h.12v.12c0,3.23-.05,5.8-.07,7.59,0,.85,0,1.52,0,2,0,.21,0,.37,0,.51A.92.92,0,0,1,533.34,413.8Z" style="fill:#e0e0e0"></path><rect x="537.1" y="335.72" width="38.76" height="10.25" style="fill:#ebebeb"></rect><path d="M558.17,356.44s0-.07,0-.19v-.52c0-.49,0-1.16,0-2,0-1.77,0-4.32-.07-7.52l.12.12-38.75.07.19-.19h0v10.24l-.2-.19,27.62.08,8.16.06,2.2,0,.58,0h-.53l-2.16,0-8.11.05-27.76.09h-.19V346.2h0l.2-.2,38.75.08h.12v.12c0,3.23,0,5.8-.06,7.59,0,.85,0,1.52,0,2,0,.21,0,.37,0,.51S558.18,356.44,558.17,356.44Z" style="fill:#e0e0e0"></path><rect x="679.19" y="148.73" width="38.76" height="10.25" style="fill:#ebebeb"></rect><path d="M700.27,169.45a1.7,1.7,0,0,1,0-.19c0-.13,0-.31,0-.52,0-.49,0-1.16,0-2,0-1.77,0-4.32-.07-7.52l.12.12-38.76.07c.09-.09-.2.2.2-.19h0v5.2c0,1.71,0,3.39,0,5l-.19-.19,27.62.08,8.15.06,2.21,0,.58,0h-.53l-2.17,0-8.1.05-27.76.09h-.19v-.19c0-1.65,0-3.33,0-5v-5.2h0l.2-.2,38.76.07h.12v.12c0,3.23,0,5.8-.07,7.59,0,.85,0,1.51,0,2,0,.21,0,.37,0,.51A.92.92,0,0,1,700.27,169.45Z" style="fill:#e0e0e0"></path><path d="M678.54,398a.63.63,0,0,1,0-.2c0-.15,0-.34,0-.57,0-.52,0-1.25,0-2.18,0-1.91,0-4.66-.07-8.13l.13.13-41.88.08.21-.21h0v5.61c0,1.85,0,3.67,0,5.45l-.21-.21,29.85.1,8.81.06,2.38,0,.63,0h0l-.59,0-2.34,0-8.76.06-30,.1h-.2V398c0-1.78,0-3.6,0-5.45V387h0c.43-.43.12-.12.22-.21l41.88.08h.13V387c0,3.5-.06,6.28-.07,8.21,0,.92,0,1.63,0,2.15,0,.22,0,.4,0,.54A1.23,1.23,0,0,1,678.54,398Z" style="fill:#e0e0e0"></path><path d="M684.22,387a1.07,1.07,0,0,1,0-.21c0-.16,0-.35,0-.59,0-.54,0-1.29,0-2.22,0-1.94,0-4.69-.09-8.06l.16.15-25.17.06c-.19.19.26-.26.22-.21h0V387l-.21-.2,18,.09,5.25.06,1.41,0,.51,0a2.17,2.17,0,0,1-.46,0l-1.37,0-5.2.06-18.14.09h-.2V387c0-1.72,0-3.52,0-5.37v-5.69h0c-.05,0,.4-.41.21-.21l25.17.06h.15v.15c0,3.41-.06,6.19-.08,8.15,0,.92,0,1.65,0,2.19A6.5,6.5,0,0,1,684.22,387Z" style="fill:#e0e0e0"></path><path d="M258.71,414s0-.07,0-.2,0-.34,0-.57c0-.52,0-1.25,0-2.18,0-1.91,0-4.66-.07-8.13l.12.13-41.88.08L217,403h0V414l-.21-.21,29.85.1,8.81.06,2.38,0,.62,0h.22s-.06,0-.19,0l-.6,0-2.33,0-8.77.06-30,.1h-.21V403h0c.42-.43.12-.12.21-.21l41.88.08h.14V403c0,3.5,0,6.28-.07,8.21,0,.92,0,1.63,0,2.15,0,.22,0,.4,0,.54S258.72,414,258.71,414Z" style="fill:#e0e0e0"></path><path d="M264.39,403s0-.08,0-.21,0-.35,0-.59c0-.54,0-1.28,0-2.22,0-1.94-.05-4.69-.08-8.06l.15.15-25.16.06.21-.21h0v5.69c0,1.85,0,3.65,0,5.37l-.2-.2,18,.09,5.24.06,1.42,0a2.83,2.83,0,0,1,.5,0,2.29,2.29,0,0,1-.45,0l-1.38,0-5.19.06-18.14.09H239v-8.39c0-.48,0-1,0-1.44V391.9h0c0,.05.41-.4.22-.21l25.16.06h.16v.15c0,3.41-.07,6.19-.09,8.15q0,1.38,0,2.19C264.41,402.72,264.4,403,264.39,403Z" style="fill:#e0e0e0"></path><path d="M579,132.7a.8.8,0,0,1,0-.2c0-.15,0-.33,0-.57,0-.52,0-1.24,0-2.18,0-1.91,0-4.66-.07-8.13l.13.13-41.88.09c.09-.1-.22.21.21-.22h0V132.7l-.21-.2,29.85.09,8.81.06,2.38,0H579s-.06,0-.2,0h-.59l-2.34,0-8.76.06-30,.09h-.21V121.64h0l.22-.21,41.88.08h.13v.13c0,3.5-.06,6.28-.07,8.21,0,.92,0,1.64,0,2.15,0,.23,0,.41,0,.55A.86.86,0,0,1,579,132.7Z" style="fill:#e0e0e0"></path><path d="M584.65,121.62a.85.85,0,0,1,0-.21c0-.16,0-.35,0-.58,0-.55,0-1.29,0-2.23,0-1.94-.05-4.68-.09-8.06l.16.16-25.17.06c-.19.19.26-.26.21-.22h0v5.69c0,1.85,0,3.65,0,5.37l-.2-.2,18,.1,5.25,0,1.41,0,.51,0a2.63,2.63,0,0,1-.46,0l-1.37,0-5.2.06-18.14.1h-.2v-.21c0-1.72,0-3.52,0-5.37v-5.69h0l.21-.21,25.17.06h.15v.15c0,3.42-.06,6.19-.08,8.16,0,.92,0,1.65,0,2.18A6.5,6.5,0,0,1,584.65,121.62Z" style="fill:#e0e0e0"></path><rect x="153.83" y="254.43" width="38.76" height="10.25" style="fill:#ebebeb"></rect><path d="M174.9,275.16s0-.07,0-.19v-.52c0-.49,0-1.16,0-2,0-1.77,0-4.32-.07-7.53l.12.12-38.75.08c.08-.09-.2.2.19-.2h0v10.24l-.2-.2,27.63.09,8.15.06,2.2,0,.58,0a.63.63,0,0,1,.2,0h-.73l-2.16,0-8.11.05-27.76.09H136V264.92h0c.39-.39.11-.11.2-.19l38.75.07H175v.12c0,3.24-.05,5.81-.06,7.6,0,.85,0,1.51,0,2v.5C174.91,275.11,174.91,275.16,174.9,275.16Z" style="fill:#e0e0e0"></path><path d="M75.18,391.47a1.57,1.57,0,0,1,0-.2l0-.57c0-.52,0-1.25,0-2.18,0-1.91,0-4.66-.07-8.13l.13.13-41.88.08.21-.21h0V386c0,1.85,0,3.67,0,5.45l-.2-.21,29.84.1,8.81.06,2.39,0,.62,0h.22l-.19,0h-.6l-2.34,0-8.76.06-30,.09h-.21v-.21c0-1.78,0-3.6,0-5.45v-5.61h0c.43-.43.12-.12.22-.21l41.88.08h.13v.13c0,3.5-.06,6.28-.07,8.21,0,.92,0,1.64,0,2.15l0,.55A.86.86,0,0,1,75.18,391.47Z" style="fill:#e0e0e0"></path><path d="M80.86,380.39a1,1,0,0,1,0-.21v-.59c0-.54,0-1.28,0-2.22,0-1.94-.05-4.69-.08-8.06l.15.15-25.16.06.21-.21h0v2.87c0,.95,0,1.89,0,2.82v5.37l-.21-.2,18,.09,5.24.06,1.41,0a3,3,0,0,1,.51,0,2.49,2.49,0,0,1-.46,0l-1.37,0-5.2.06-18.14.09h-.2v-.21c0-1.72,0-3.52,0-5.37v-5.69h0c0,.05.4-.4.22-.21l25.16.06H81v.15c0,3.41-.06,6.19-.08,8.15,0,.93,0,1.66,0,2.19A6.5,6.5,0,0,1,80.86,380.39Z" style="fill:#e0e0e0"></path><path d="M394.65,242.66a1.57,1.57,0,0,1,0-.2c0-.15,0-.34,0-.57,0-.52,0-1.25,0-2.18,0-1.91,0-4.66-.07-8.13l.13.13-41.88.08.21-.21h0v5.61c0,1.85,0,3.67,0,5.45l-.2-.21,29.84.1,8.81.06,2.39,0,.62,0h0l-.6,0-2.34,0-8.76.05-30,.1h-.21v-.21c0-1.78,0-3.6,0-5.45V231.6h0c.43-.43.12-.12.22-.21l41.88.08h.13v.13c0,3.5,0,6.28-.07,8.21,0,.92,0,1.64,0,2.15,0,.22,0,.4,0,.55A.86.86,0,0,1,394.65,242.66Z" style="fill:#e0e0e0"></path><path d="M400.33,231.58a1,1,0,0,1,0-.21c0-.16,0-.35,0-.59,0-.54,0-1.28,0-2.22,0-1.94-.05-4.69-.08-8.06l.15.15-25.16.06c-.2.19.25-.26.21-.21h0v2.87c0,1,0,1.89,0,2.82v5.37l-.21-.2,18,.09,5.24.06,1.41,0a3,3,0,0,1,.51,0,2.49,2.49,0,0,1-.46,0l-1.37,0-5.2.06-18.14.09H375v-.2c0-1.72,0-3.52,0-5.37v-5.69h0l.22-.21,25.16.06h.15v.15c0,3.41-.06,6.19-.08,8.15,0,.93,0,1.65,0,2.19A6.5,6.5,0,0,1,400.33,231.58Z" style="fill:#e0e0e0"></path><rect x="285.63" y="94.75" width="38.76" height="10.25" style="fill:#ebebeb"></rect><path d="M313.57,115.47a.58.58,0,0,1,0-.19l0-.52c0-.48,0-1.16,0-2,0-1.77,0-4.31-.06-7.52l.12.12-38.76.07c.09-.08-.2.2.2-.19h0v2.6c0,.87,0,1.73,0,2.59v5l-.19-.19,27.62.09,8.15,0,2.21,0h.78s-.06,0-.18,0l-.56,0-2.16,0-8.11.06-27.75.08h-.2V105.24h0l.2-.2,38.76.08h.12v.12c0,3.24-.05,5.81-.07,7.59,0,.85,0,1.52,0,2,0,.21,0,.38,0,.51A.79.79,0,0,1,313.57,115.47Z" style="fill:#e0e0e0"></path><rect x="134.08" y="72.77" width="87.88" height="122.35" style="fill:#fff"></rect><path d="M222,195.12s0-.2,0-.59,0-1,0-1.72c0-1.52,0-3.76,0-6.67,0-5.83,0-14.35,0-25.12,0-21.54-.05-52.1-.09-88.25L222,73l-87.87,0h0l.21-.21c0,45.79,0,88.15,0,122.35l-.17-.17L198,195l17.72,0,4.65,0,1.61,0-1.57,0-4.63,0-17.68,0-64,.09h-.16v-.17c0-34.2,0-76.56,0-122.35v-.2h.21l87.87,0h.19v.18c0,36.2-.07,66.8-.1,88.37,0,10.76,0,19.26-.05,25.08,0,2.89,0,5.12,0,6.63,0,.75,0,1.31,0,1.7S222,195.12,222,195.12Z" style="fill:#e0e0e0"></path><rect x="142.94" y="137.46" width="68.47" height="4.41" style="fill:#f5f5f5"></rect><rect x="158.68" y="135.79" width="38.57" height="7.97" style="fill:#f5f5f5"></rect><path d="M171.9,102.28c3.93,0,5.74,2.38,5.74,6.28V121.3c0,3.87-1.81,6.25-5.74,6.25H166V102.28Zm0,22.7c2,0,3-1.26,3-3.57v-13c0-2.31-1-3.57-3-3.57h-3V125Z" style="fill:#e0e0e0"></path><path d="M180.06,108.38c0-3.86,1.91-6.35,5.77-6.35s5.81,2.49,5.81,6.35v13.07c0,3.82-1.91,6.35-5.81,6.35s-5.77-2.53-5.77-6.35Zm2.78,13.21c0,2.31,1,3.65,3,3.65s3-1.34,3-3.65V108.24c0-2.28-.94-3.65-3-3.65s-3,1.37-3,3.65Z" style="fill:#e0e0e0"></path><path d="M173.68,150.42V178h-3.07V150.42Z" style="fill:#e0e0e0"></path><path d="M180.85,178V153.21h-5.08v-2.79H189v2.79h-5.07V178Z" style="fill:#e0e0e0"></path><polygon points="145.22 104.37 148.56 116.41 151.49 113.08 156.38 121.39 153.14 107.1 150.11 110.53 145.22 104.37" style="fill:#f5f5f5"></polygon><polygon points="210.65 103.16 207.32 115.2 204.38 111.87 199.5 120.18 202.74 105.89 205.76 109.32 210.65 103.16" style="fill:#f5f5f5"></polygon><polygon points="177.55 78.72 173.21 93.09 178.33 91.59 177.96 103.16 183.84 86.57 178.57 88.11 177.55 78.72" style="fill:#ebebeb"></polygon><polygon points="196.81 124.49 196.01 124.49 196.01 92.07 161.04 92.07 161.04 124.49 160.25 124.49 160.25 91.28 196.81 91.28 196.81 124.49" style="fill:#ebebeb"></polygon><polygon points="196.81 183.03 160.25 183.03 160.25 149.82 161.04 149.82 161.04 182.24 196.01 182.24 196.01 149.82 196.81 149.82 196.81 183.03" style="fill:#ebebeb"></polygon><rect x="150.8" y="124.49" width="7.88" height="30.3" rx="2.63" style="fill:#ebebeb"></rect><rect x="197.26" y="124.49" width="7.88" height="30.3" rx="2.63" style="fill:#ebebeb"></rect><rect x="147.56" y="135.03" width="3.25" height="8.44" style="fill:#ebebeb"></rect><rect x="205.07" y="135.03" width="3.25" height="8.44" style="fill:#ebebeb"></rect><rect x="126.93" y="74.5" width="24.58" height="4.42" transform="translate(-17.92 100.65) rotate(-37.52)" style="fill:#f5f5f5"></rect><rect x="203.94" y="189.66" width="24.58" height="4.42" transform="translate(-72.13 171.36) rotate(-37.51)" style="fill:#f5f5f5"></rect></g><g id="freepik--Floor--inject-38"><path d="M681.56,443.89c0,.15-141.29.26-315.54.26S50.44,444,50.44,443.89s141.26-.26,315.58-.26S681.56,443.75,681.56,443.89Z" style="fill:#263238"></path></g><g id="freepik--speech-bubble--inject-38"><path d="M431.32,123.62l-2.3-8.24a27.49,27.49,0,1,0-6.47,7.44h0Z" style="fill:#fff"></path><path d="M431.32,123.62l-.59-.07-1.69-.18-6.49-.66.09.2h0a.14.14,0,0,0,0-.18.13.13,0,0,0-.16,0,27.48,27.48,0,0,1-12.21,5.49,27.58,27.58,0,0,1-18.05-3,27.18,27.18,0,0,1-7.41-41.51l1.11-1.25,1.22-1.14a29.93,29.93,0,0,1,2.56-2.09,27.05,27.05,0,0,1,29.25-1.37,27.35,27.35,0,0,1,10,37.51l0,.1c.77,2.63,1.36,4.66,1.78,6.06.2.68.35,1.2.47,1.59s.17.55.17.55a4.4,4.4,0,0,0-.12-.51c-.1-.38-.23-.9-.41-1.57l-1.64-6.19,0,.1a27.45,27.45,0,0,0,3.91-13A27.78,27.78,0,0,0,407.8,73.7a28.11,28.11,0,0,0-18.45,5,29.7,29.7,0,0,0-2.62,2.13L385.48,82l-1.13,1.28A27.71,27.71,0,0,0,392,125.61a27.49,27.49,0,0,0,30.66-2.69l-.18-.17h0a.14.14,0,0,0,0,.18l.07,0,6.59.51,1.66.12Z" style="fill:#263238"></path><polygon points="404.97 114.66 390.44 105.12 393.77 100.05 403.51 106.44 415.43 90.39 420.3 94 404.97 114.66" style="fill:#F18F01"></polygon></g><g id="freepik--character-4--inject-38"><path d="M621.66,202.85c.24.52-9,39.3-11.64,46.15s-27.52,41-27.52,41l-7.12-2.75s16.7-38.32,18.49-42.89,4.38-44.12,4.73-45.43S614,186.06,621.66,202.85Z" style="fill:#ae7461"></path><path d="M574.65,288.47c-.41.34-6.19,10.4-6.18,11.35s-.54,6.91-.19,8.37,3.24,6.21,4,5.8,1.77-1.55,1.19-2.56l3.88,1.31s.65-1.85-.5-2.81l1.91-.11s-.1-2-1.3-2.41-.77,0-.77,0l-.7-1.69s1.15-4.28,2-5.15,2.7-1.38,3.4-3.79.1-5.33.53-5.87a29.52,29.52,0,0,0,1.62-3.09s-5.34-4.11-5.62-4.23S574.65,288.47,574.65,288.47Z" style="fill:#ae7461"></path><path d="M577.71,301a2.59,2.59,0,0,1-.18.86,13,13,0,0,1-3,5.07,2.31,2.31,0,0,1-2.11.7,1.57,1.57,0,0,1-1-.82,2.33,2.33,0,0,1-.19-1.24,3.88,3.88,0,0,1,1-2.1,7.55,7.55,0,0,0,1.15-1.64,10.51,10.51,0,0,0,.66-3.35,9.57,9.57,0,0,1,.45-2.35,1.92,1.92,0,0,1,.41-.78,6,6,0,0,1-.22.84,12.41,12.41,0,0,0-.27,2.32,10.35,10.35,0,0,1-.59,3.52c-.52,1.31-2,2.19-2.12,3.59a1.31,1.31,0,0,0,.79,1.51,1.85,1.85,0,0,0,1.66-.55,13.8,13.8,0,0,0,2.11-2.71C577.29,302.16,577.62,301,577.71,301Z" style="fill:#6f4439"></path><path d="M576.59,310.05a4.47,4.47,0,0,1-2.07-.76,3.44,3.44,0,0,1-.91-1.31c-.17-.31-.35-.43-.33-.51s.33,0,.63.29.52.85.91,1.1C575.8,309.38,576.68,309.92,576.59,310.05Z" style="fill:#6f4439"></path><path d="M633.14,438.07l.42-16.61,15.28-2.37-1,12.48,1.23,6.91s-3.15,3.94-3.77,3.76S633.14,438.07,633.14,438.07Z" style="fill:#e0e0e0"></path><path d="M611.5,447.76a38,38,0,0,0,11.58,2.37c5.46,0,13.61-1.23,16.6-1.65s11.46,1.33,12.32-1.61-2.66-14.38-2.66-14.38-2.68,3.09-5.65,2.72a55.9,55.9,0,0,1-8.61-2.4s-2.18-4.11-3.88-4.4-1.54,4.61-1.54,4.61-4.66,5.48-7.64,6.5-3.15,1.89-6.5,1.69a9,9,0,0,0-5,.9s-1.76,2.6-1.06,3.65A9.18,9.18,0,0,0,611.5,447.76Z" style="fill:#263238"></path><path d="M609.37,445.7a6.76,6.76,0,0,0,2.12,2.1,37.65,37.65,0,0,0,11.58,2.37c5.45,0,13.6-1.23,16.6-1.65s11.46,1.33,12.32-1.61a5.13,5.13,0,0,0,.08-2.53s-8.86,1.61-13,1.19-13.35,1.76-18.07,1.32a57.73,57.73,0,0,1-10-2l-1.48-1C609.28,444.57,609,445,609.37,445.7Z" style="fill:#455a64"></path><path d="M623.15,438.79a14.27,14.27,0,0,0,.45,1.6,14.82,14.82,0,0,0,.9,1.39,2.27,2.27,0,0,1-1.15-1.28A2.23,2.23,0,0,1,623.15,438.79Z" style="fill:#fff"></path><path d="M626.08,436.6a11.46,11.46,0,0,0,.67,1.87A10,10,0,0,0,628,440a3.46,3.46,0,0,1-1.92-3.41Z" style="fill:#fff"></path><path d="M628.21,434.45a15.67,15.67,0,0,1,1,1.34c.56.72,1.12,1.21,1.07,1.27A3,3,0,0,1,629,436,3.15,3.15,0,0,1,628.21,434.45Z" style="fill:#fff"></path><path d="M644.06,442.1a3.74,3.74,0,0,1-1.13.13c-.71,0-1.68,0-2.76,0s-2-.14-2.74-.23a5.39,5.39,0,0,1-1.13-.22c0-.08,1.74.09,3.88.17S644.06,442,644.06,442.1Z" style="fill:#fff"></path><path d="M696.59,275.29l-8.21,24.45-15.3-2.24,4.64-11.63.86-7s2.55-12.94,3.09-12.58S696.59,275.29,696.59,275.29Z" style="fill:#e0e0e0"></path><path d="M719.94,268.64a38.06,38.06,0,0,0-10.49-5.47c-5.24-1.5-13.41-2.56-16.41-3s-10.65-4.43-12.28-1.84-1.4,14.55-1.4,14.55,3.42-2.22,6.17-1.05a55.61,55.61,0,0,1,7.62,4.68s1,4.54,2.52,5.3,2.75-4,2.75-4,6-4,9.13-4.15,3.55-.94,6.72.17a8.94,8.94,0,0,0,5.1.53s2.41-2,2-3.22A9,9,0,0,0,719.94,268.64Z" style="fill:#263238"></path><path d="M721.42,271.2a6.78,6.78,0,0,0-1.46-2.6,37.92,37.92,0,0,0-10.48-5.47c-5.24-1.5-13.42-2.56-16.41-3s-10.66-4.44-12.29-1.84a5,5,0,0,0-.77,2.41s9,.89,12.86,2.45,13.31,2,17.74,3.7a58.44,58.44,0,0,1,9,4.69l1.16,1.34C721.19,272.32,721.58,272,721.42,271.2Z" style="fill:#455a64"></path><path d="M706.27,274.05a11.69,11.69,0,0,0,0-1.65,12.52,12.52,0,0,0-.49-1.59,2.82,2.82,0,0,1,.48,3.24Z" style="fill:#fff"></path><path d="M702.85,275.35a5.92,5.92,0,0,0-.91-3.81,2.92,2.92,0,0,1,1,1.77A2.82,2.82,0,0,1,702.85,275.35Z" style="fill:#fff"></path><path d="M700.21,276.83a13.6,13.6,0,0,1-.57-1.56,15,15,0,0,1-.68-1.52,4.33,4.33,0,0,1,1.25,3.08Z" style="fill:#fff"></path><path d="M687.07,265.11a4.06,4.06,0,0,1,1.13.19c.69.16,1.63.41,2.65.75s1.93.7,2.58,1a4.5,4.5,0,0,1,1,.52c0,.07-1.65-.56-3.68-1.24S687.06,265.19,687.07,265.11Z" style="fill:#fff"></path><path d="M636.19,130.85c-1.56-2.67-.28-6.35,2.23-8.17s5.84-2.08,8.9-1.6c4.73.74,9.43,3.41,11.33,7.81s0,10.44-4.6,11.9c1.92.94,3.94,2,5.1,3.77s1,4.62-.87,5.66c-2.14,1.17-4.66-.58-6.46-2.23a3.49,3.49,0,0,1-1,4.67,5.45,5.45,0,0,1-5.09.3,13.38,13.38,0,0,1-4.25-3.15" style="fill:#263238"></path><path d="M642.86,134.27a13.24,13.24,0,0,0-1.69-3.75,4.55,4.55,0,0,0-3.42-2,1.87,1.87,0,0,0-1.69.75,1,1,0,0,0,.57,1.53l.11.15q1.71,2.31,3.5,4.56a3.8,3.8,0,0,0,1,1,1.28,1.28,0,0,0,1.37,0C643.29,136,643.11,135,642.86,134.27Z" style="fill:#F18F01"></path><path d="M644.51,139.44a24.19,24.19,0,0,0-16.35-13.08c-4.14-1-6-.47-9.22-.31a13.41,13.41,0,0,0-8.56,3.33,22.5,22.5,0,0,0-6.48,9.13,62.44,62.44,0,0,0-3,11.21,21.21,21.21,0,0,0,1.23,11.41l9.25,3.74c5.27,1.33,11.88,9.67,17.31,9.57s11.9-7.59,14.59-12.56C646.89,155.25,648,146.16,644.51,139.44Z" style="fill:#263238"></path><path d="M607.67,181.92c.79-3.35,1.82-7.56,1.81-7.54s-7.65-2.56-7.64-13.07c0-5.22,1.59-13.54,3.11-20.3,1.36-6.09,8.35-13.27,15.89-11.67l3.43.33L636,137.53a3.64,3.64,0,0,1,2.64,4.17l-9.56,45.53L618.39,197.9,606.7,187.09Z" style="fill:#ae7461"></path><path d="M617.41,162.22a2.18,2.18,0,0,0-.46-1.48,2.22,2.22,0,0,0-2.61-.73,3,3,0,0,0-1.71,2.51h0A2.73,2.73,0,0,0,614.3,164l.35.09a2.45,2.45,0,0,0,1.75-.29A2.21,2.21,0,0,0,617.41,162.22Z" style="fill:#6f4439"></path><path d="M605.93,149a1.33,1.33,0,0,0,1.06,1.53,1.27,1.27,0,0,0,1.54-1,1.34,1.34,0,0,0-1.06-1.53A1.27,1.27,0,0,0,605.93,149Z" style="fill:#263238"></path><path d="M606.51,144.89c.14.2,1.25-.38,2.66-.15s2.34,1.1,2.52.95,0-.4-.43-.8a3.66,3.66,0,0,0-2-1,3.49,3.49,0,0,0-2.15.34C606.64,144.51,606.44,144.8,606.51,144.89Z" style="fill:#263238"></path><path d="M613.13,157.79a9.82,9.82,0,0,0-2.24-.78c-.35-.09-.68-.22-.7-.47a1.85,1.85,0,0,1,.41-1l1.5-2.58c2.11-3.68,3.7-6.73,3.55-6.81s-2,2.83-4.09,6.51c-.51.91-1,1.78-1.46,2.61a2.08,2.08,0,0,0-.41,1.38.92.92,0,0,0,.51.63,2.84,2.84,0,0,0,.6.18A8.89,8.89,0,0,0,613.13,157.79Z" style="fill:#263238"></path><path d="M609.48,174.38a26.41,26.41,0,0,0,14.31-1.48s-4.79,6.53-14.89,3.93Z" style="fill:#6f4439"></path><path d="M617.13,159.44c-.23-.05-.47,1.48-2,2.36s-3.1.45-3.14.67.31.35,1,.48a3.87,3.87,0,0,0,2.61-.47,3.34,3.34,0,0,0,1.55-2C617.35,159.85,617.24,159.44,617.13,159.44Z" style="fill:#263238"></path><path d="M607.24,142.12c.19.38,1.31.32,2.56.63s2.24.81,2.57.54c.15-.13.06-.49-.32-.91a4,4,0,0,0-1.94-1,3.88,3.88,0,0,0-2.19.11C607.4,141.65,607.17,141.94,607.24,142.12Z" style="fill:#263238"></path><path d="M621.71,152.15a1.34,1.34,0,0,1-1.52,1.07,1.28,1.28,0,0,1-1.11-1.45,1.32,1.32,0,0,1,1.52-1.06A1.26,1.26,0,0,1,621.71,152.15Z" style="fill:#263238"></path><path d="M625.55,148.44c-.2.13-1-.79-2.45-1.07s-2.57.23-2.69,0,.16-.36.68-.6a3.59,3.59,0,0,1,2.19-.23,3.55,3.55,0,0,1,1.91,1.06C625.56,148,625.64,148.37,625.55,148.44Z" style="fill:#263238"></path><path d="M625.67,143.77c-.34.27-1.35-.28-2.65-.55s-2.46-.26-2.64-.65c-.08-.18.15-.47.7-.67a4.29,4.29,0,0,1,4.26,1C625.74,143.28,625.83,143.64,625.67,143.77Z" style="fill:#263238"></path><path d="M633.2,158.35c.13-.77,1.29-2.43,2.07-2.42,2.06,0,5.66.74,4.88,5.86-1.06,7-7.87,4.48-7.85,4.28S632.78,161,633.2,158.35Z" style="fill:#ae7461"></path><path d="M634.62,163.81s.11.1.3.23a1.25,1.25,0,0,0,.91.16,3.07,3.07,0,0,0,1.81-2.5,4.09,4.09,0,0,0-.08-1.79,1.41,1.41,0,0,0-.77-1.08.62.62,0,0,0-.77.23c-.13.18-.1.32-.14.33s-.13-.14,0-.42a.75.75,0,0,1,.34-.4.92.92,0,0,1,.7-.07,1.75,1.75,0,0,1,1.11,1.28,4.19,4.19,0,0,1,.12,2c-.26,1.4-1.18,2.61-2.24,2.75a1.33,1.33,0,0,1-1.08-.35C634.61,164,634.59,163.82,634.62,163.81Z" style="fill:#6f4439"></path><path d="M635.54,156l-2.14,1.44c-6-8.89-16.89-30.24-16.3-29a22.47,22.47,0,0,1,11.07,1.16c5.43,2.18,15.51,7.3,13.91,13.91S635.54,156,635.54,156Z" style="fill:#263238"></path><path d="M645.91,156.65a2.64,2.64,0,0,0,0-.42,7.71,7.71,0,0,0-.24-1.19,10.35,10.35,0,0,0-2.18-3.87,19.19,19.19,0,0,0-5.21-4c-2.15-1.25-4.62-2.4-6.94-4.05a34.45,34.45,0,0,1-6-5.29,36.57,36.57,0,0,1-3.9-5.25,39,39,0,0,1-2.07-3.91l-.49-1.1a2.09,2.09,0,0,0-.19-.38,1.85,1.85,0,0,0,.12.41c.1.26.23.64.43,1.13a32.57,32.57,0,0,0,2,4,35.1,35.1,0,0,0,3.87,5.34,34.3,34.3,0,0,0,6,5.37,78.7,78.7,0,0,0,7,4,19.52,19.52,0,0,1,5.18,3.93,10.75,10.75,0,0,1,2.24,3.74C645.83,156.07,645.87,156.66,645.91,156.65Z" style="fill:#455a64"></path><path d="M643.66,157.3a3.74,3.74,0,0,0,.06-1.56,7.17,7.17,0,0,0-1.89-3.81,16.1,16.1,0,0,0-5.28-3.51,34.17,34.17,0,0,1-6.66-3.82,31,31,0,0,1-5.54-5.32,32.61,32.61,0,0,1-3.44-5.24,33.6,33.6,0,0,1-1.72-3.88c-.15-.45-.28-.81-.37-1.1a1.61,1.61,0,0,0-.16-.37,1.87,1.87,0,0,0,.09.39c.08.3.18.67.31,1.12a29.4,29.4,0,0,0,1.62,4,30.27,30.27,0,0,0,9,10.74,34.08,34.08,0,0,0,6.74,3.83,16.2,16.2,0,0,1,5.23,3.38,7.28,7.28,0,0,1,1.94,3.66A8.87,8.87,0,0,1,643.66,157.3Z" style="fill:#455a64"></path><path d="M617.92,226.49c-.07.22-23.88-2.91-23.88-2.91s2-19.73,3.82-25.62c1.72-5.53,13.46-11.51,18.7-6.46a16.58,16.58,0,0,1,5.1,11.35Z" style="fill:#F18F01"></path><path d="M617.58,226.93c-1.66,0-6.84-.65-23.61-2.85l-.48-.06,0-.49c.08-.8,2-19.85,3.85-25.72,1-3.38,5.68-7,10.56-8.26,3.72-1,6.9-.39,9,1.59a17,17,0,0,1,5.25,11.72l-3.76,23.76C618.35,226.8,618.31,226.93,617.58,226.93Zm-23-3.78c8.44,1.11,20.58,2.66,22.9,2.83l3.67-23.21h0a16.23,16.23,0,0,0-4.95-10.91c-2.42-2.34-6.06-1.84-8-1.34-4.57,1.18-8.91,4.51-9.86,7.59C596.71,203.38,594.91,220.09,594.59,223.15Z" style="fill:#263238"></path><path d="M606.76,184.09s-13.2,16.1-14.73,24,4.24,28.49,4.24,28.49l2.49,12.26,38.09-6.56.55-27.57-2.84-31.41-3.91-3.58Z" style="fill:#F18F01"></path><path d="M636.85,247.39v-5.15s-5.23-6-18.48-4.16-18.88,9.31-18.88,9.31l2.7,8.53,13.45,1.52Z" style="fill:#ae7461"></path><path d="M691.91,289.62c-.25.72-10,44.06-12,54S662,372.17,648.49,354.74,621,306.69,621,306.69l36.59-11.4,4.16,17.08,16.83-28.81Z" style="fill:#263238"></path><path d="M658.81,345.56a7.08,7.08,0,0,1-.47-1.27,15.17,15.17,0,0,1-.46-1.52c-.15-.6-.35-1.27-.48-2a38.28,38.28,0,0,1-.75-5.43,44.64,44.64,0,0,1,.1-6.7,43.89,43.89,0,0,1,1.18-6.61,38.76,38.76,0,0,1,1.77-5.18c.28-.73.6-1.36.86-1.92s.52-1,.73-1.41a8,8,0,0,1,.71-1.15c.09.05-.84,1.73-2,4.61a44.93,44.93,0,0,0-1.64,5.17,47.46,47.46,0,0,0-1.13,6.54,46.64,46.64,0,0,0-.14,6.62,44.59,44.59,0,0,0,.63,5.39C658.31,343.7,658.91,345.53,658.81,345.56Z" style="fill:#455a64"></path><path d="M609.25,281.07s-.1,50.06,14.09,78.85c3.2,6.48,5.52,10.5,5.55,16.33s1.89,51.33,1.89,51.33h18.28s5.62-31,5.35-39.2-4.78-25.43-5.31-32-7.44-45.26-7.44-45.26l-10.53-26.08Z" style="fill:#263238"></path><path d="M636.7,247c1.5.11,2.77,8.23,3.34,9s18.56,7.27,20,25a49.82,49.82,0,0,1-3.38,16.28l.93,16.25-34.14,7.91s-5.63-17.64-7.88-30.94a50.58,50.58,0,0,1-8.44-14.12c-3.66-8.95-5.07-21.17-5.07-21.17S613.1,245.31,636.7,247Z" style="fill:#263238"></path><path d="M612.13,283.41s0,.07.09.23l.2.7c.18.65.43,1.55.75,2.68.66,2.33,1.68,5.69,3.14,9.76s3.45,8.83,5.92,14,5.46,10.71,8.83,16.39,6.78,11,9.94,15.75l2.32,3.48c.75,1.13,1.52,2.22,2.14,3.34a46,46,0,0,0,3.75,6,15.77,15.77,0,0,0,8.27,5.62l1.55.38,1.17.18.71.12a1,1,0,0,1,.24.05h-.24l-.73-.07c-.31,0-.71-.06-1.17-.13l-1.59-.34a15.72,15.72,0,0,1-8.5-5.58,45.35,45.35,0,0,1-3.83-6c-.62-1.11-1.38-2.17-2.14-3.3l-2.35-3.47c-3.19-4.77-6.62-10.06-10-15.75s-6.36-11.26-8.81-16.45A147,147,0,0,1,616,296.9c-1.42-4.1-2.39-7.47-3-9.82-.27-1.15-.49-2.06-.65-2.72l-.15-.71C612.13,283.49,612.12,283.41,612.13,283.41Z" style="fill:#455a64"></path><path d="M637.52,186.63c.56.13,26.31,30.17,30.08,36.49s18.84,44.45,18.84,44.45L676.1,272s-19.53-34.77-22.05-39-32.15-30.53-33-31.61S619.54,182.42,637.52,186.63Z" style="fill:#ae7461"></path><path d="M675.27,270.25l.82,2.66a61.2,61.2,0,0,0-1.26,8.57c-.12,3.38.78,7.89.72,8.49s3.43,3.54,4.73,3.24,1.45-2.15.49-3.29-.94-3.94-.94-3.94l1-1.79s6.77,2.82,8.32,2.56a3.57,3.57,0,0,0,2.31-2s2.94.56,3.2-1.23l.26-1.78s1.54.71,1.84-1.31-.38-2.61-.38-2.61,2.7-.33,1.2-3-9.94-6.06-10.71-6.85a6.08,6.08,0,0,1-1.15-1.82Z" style="fill:#ae7461"></path><path d="M656.44,201.36l-17.38,18s-15.4-14.63-19.57-19.18c-5-5.4.12-17.72,7.22-19.28s12.16,4.35,12.16,4.35Z" style="fill:#F18F01"></path><path d="M656.44,201.36l-.35-.29-1-.84-3.6-3.22-12.8-11.57h0a14.7,14.7,0,0,0-6-3.89,11.55,11.55,0,0,0-3.77-.61,9,9,0,0,0-3.84.84,13.07,13.07,0,0,0-5.67,6,14.39,14.39,0,0,0-1.53,8.58,7.9,7.9,0,0,0,1.79,3.75c1,1,2,2.07,3,3.06,2,2,3.94,3.92,5.85,5.78l10.66,10.3h-.3l12.65-13,3.57-3.62,1-1,.35-.33a3.76,3.76,0,0,1-.29.33l-.89,1-3.46,3.67-12.58,13.22-.15.15-.15-.15c-3.29-3.1-6.9-6.55-10.72-10.25-1.91-1.86-3.88-3.78-5.87-5.77-1-1-2-2-3-3.08a8.45,8.45,0,0,1-1.93-4,15,15,0,0,1,1.59-8.92,13.61,13.61,0,0,1,5.92-6.21,10.84,10.84,0,0,1,8-.22,15,15,0,0,1,6.12,4v0c5.29,4.92,9.67,9,12.75,11.83l3.49,3.27.89.85A2.91,2.91,0,0,1,656.44,201.36Z" style="fill:#263238"></path><path d="M599.49,247.39a32,32,0,0,1,2.55,7.87,17.26,17.26,0,0,1-1.52-3.85A17.54,17.54,0,0,1,599.49,247.39Z" style="fill:#6f4439"></path></g><g id="freepik--character-3--inject-38"><path d="M393.16,286.12c.58-1.32,0-14.48,0-14.48H409.6L409,278l3.33,8.08L402,289.87Z" style="fill:#ffbf9d"></path><path d="M374.46,311.49s7.7.51,13.81-1.41,14.81-6.16,18-7.68,13.31-2.53,13.23-6.14-8-15.17-8-15.17-1.92,4.4-5.37,5-10.5.33-10.5.33-3.88-3.83-5.89-3.57-.11,5.71-.11,5.71-3.3,7.78-6.27,10-2.88,3.22-6.7,4.18-5.35,2.78-5.35,2.78-1.06,3.54.1,4.47A10.66,10.66,0,0,0,374.46,311.49Z" style="fill:#263238"></path><path d="M371.35,309.93a7.78,7.78,0,0,0,3.11,1.61s7.7.51,13.81-1.41,14.82-6.15,18-7.67,13.31-2.54,13.24-6.14a5.86,5.86,0,0,0-.8-2.86s-9.37,4.91-14.2,5.9S390.2,306,384.75,307.2a68.81,68.81,0,0,1-11.86,1.22l-2-.57C370.85,308.69,370.7,309.3,371.35,309.93Z" style="fill:#455a64"></path><path d="M384.36,297.34a13.58,13.58,0,0,0,1.07,1.64,14.1,14.1,0,0,0,1.5,1.24,3.31,3.31,0,0,1-2.57-2.88Z" style="fill:#fff"></path><path d="M386.88,293.86a11.78,11.78,0,0,0,1.41,1.86,11.33,11.33,0,0,0,1.94,1.29,3.4,3.4,0,0,1-2.17-1.05A3.26,3.26,0,0,1,386.88,293.86Z" style="fill:#fff"></path><path d="M388.51,290.71a16.82,16.82,0,0,1,1.57,1.16,15.91,15.91,0,0,1,1.64,1.05,3.66,3.66,0,0,1-1.82-.78A3.76,3.76,0,0,1,388.51,290.71Z" style="fill:#fff"></path><path d="M409,293.71a4.67,4.67,0,0,1-1.23.55c-.78.29-1.87.64-3.09,1s-2.34.57-3.16.71a5.36,5.36,0,0,1-1.33.15c0-.1,2-.52,4.41-1.17S408.94,293.62,409,293.71Z" style="fill:#fff"></path><path d="M552.09,275c.41.49,5,13.38,4.83,14.49s-.81,8.15-1.52,9.78-5.07,6.54-5.91,5.9-1.73-2.17-.85-3.22l-4.79.71s-.37-2.28,1.17-3.16l-2.2-.53s.54-2.32,2-2.53.88.19.88.19l1.17-1.81s-.45-5.22-1.25-6.42-2.85-2.16-3.16-5.11,1-6.22.6-6.93a35,35,0,0,1-1.24-3.93s7.07-3.67,7.42-3.75S552.09,275,552.09,275Z" style="fill:#ffbf9d"></path><path d="M545.93,288.92c.1,0,.22,1.46,1,3.65a16,16,0,0,0,1.9,3.6,2.19,2.19,0,0,0,1.84,1,1.59,1.59,0,0,0,1.28-1.64,4.18,4.18,0,0,0-.7-2.34,9,9,0,0,1-1-2.29,12.16,12.16,0,0,1,0-4.2,15.47,15.47,0,0,0,.15-2.76,7.34,7.34,0,0,1-.1-1,2.56,2.56,0,0,1,.3,1,11.86,11.86,0,0,1,0,2.83,12.89,12.89,0,0,0,.06,4.05,9,9,0,0,0,1,2.15,4.71,4.71,0,0,1,.77,2.63A2.67,2.67,0,0,1,552,297a1.78,1.78,0,0,1-1.27.73,2.62,2.62,0,0,1-2.27-1.23,15,15,0,0,1-1.87-3.77A14.78,14.78,0,0,1,546,290,3.51,3.51,0,0,1,545.93,288.92Z" style="fill:#ff9a6c"></path><path d="M552.12,298.13c.11.1-.59,1-1.45,2.09s-1.58,2-1.7,1.89a5.44,5.44,0,0,1,1.29-2.22C551.14,298.78,552,298,552.12,298.13Z" style="fill:#ff9a6c"></path><path d="M551.39,291c.06,0,.31.32.64.93a6.5,6.5,0,0,1,.79,2.66,10.91,10.91,0,0,1-.52,2.68c-.14.65,0,1.06-.13,1.09s-.29-.4-.24-1.13a22.61,22.61,0,0,0,.37-2.62,8.38,8.38,0,0,0-.61-2.53C551.46,291.41,551.32,291,551.39,291Z" style="fill:#ff9a6c"></path><path d="M545.34,299.68a7.13,7.13,0,0,1,2.33-1c.54-.23.89-.83,1.29-1.11s.77-.3.77-.23-.24.17-.52.5c-.14.16-.29.38-.49.62a2.06,2.06,0,0,1-.83.69A5.82,5.82,0,0,1,545.34,299.68Z" style="fill:#ff9a6c"></path><path d="M500.53,164l4.12,2.75s9.78,2.7,13.51,8.78,6.71,16.74,7.7,22.83,5.89,15.34,8.44,23.67c0,0,11,20.89,14.33,44.06l1.77,5.55-7.32,4.71s-14.43-24.55-16.59-30.43-3.38-8.49-5.93-15.17-12.57-19.05-13-22.58L508.78,198s-5.89-8.24-8.25-16.1,0-18.84,0-18.84" style="fill:#ffbf9d"></path><path d="M456.94,159.29l-7.06,2.94s-17.08.72-21.79,16l-4.93,10.48,3.55,20.8,5.89,1.76,8.64-17.08,2.06.2s7.95-11.39,11.09-18.26S456.94,159.29,456.94,159.29Z" style="fill:#ffbf9d"></path><path d="M436.09,209.25c-.5-.62-15.31-15.17-15.31-15.17s7-16.18,8.48-18.7,4.84-9.78,18.55-13.54l10-2.82-4.22,29.69-10.27,5.72Z" style="fill:#e0e0e0"></path><path d="M456.94,159.29l11-1.94,22.85,1.32,7.55,3.17,11.78,34.36s-7.66,30.23-7.66,30.82-8.92,40.56-8.92,40.56,8.18,1.94-2.88,7.26c-20.69-6.71-38.88-15.26-47.39-30.93l-3.57-13L443.3,222v-27.6Z" style="fill:#e0e0e0"></path><path d="M510.15,217.47l19.32-11.63s-7-29.62-15.76-35.51a93.11,93.11,0,0,0-15.34-8.49l6.8,46.33Z" style="fill:#e0e0e0"></path><path d="M509.52,188.57c.14,0-.55,5.94-1.54,13.22S506.08,215,505.93,215s.55-5.94,1.54-13.23S509.37,188.55,509.52,188.57Z" style="fill:#263238"></path><path d="M442.86,182.92c.15,0,.43,8.63.64,19.28s.27,19.28.12,19.28-.43-8.62-.64-19.27S442.72,182.93,442.86,182.92Z" style="fill:#263238"></path><path d="M464.75,138.15a74.82,74.82,0,0,1-2.84-12.41,25.83,25.83,0,0,1,1.39-12.55c.24-.6,2.27-4.59,2.91-4.51.46.06-.83,3.8-.61,4.21a21.88,21.88,0,0,1,2.08,12.82,58,58,0,0,1-2.93,12.44" style="fill:#e0e0e0"></path><path d="M464.27,160.14l.55-38.21c0-10.67,6.15-19.57,16.81-19.3l1,.08a19.07,19.07,0,0,1,17.48,19.05c0,9.24-.18,19.45-.65,24.37-1,10.18-11.31,10.91-11.31,10.91s-.06.91-.18,3.91l-6.48,10h0Z" style="fill:#ffbf9d"></path><path d="M488.13,157a24.72,24.72,0,0,1-12.94-5s2.55,7.93,12.8,7.86Z" style="fill:#ff9a6c"></path><path d="M496.37,130.7a1.47,1.47,0,0,1-1.53,1.36,1.41,1.41,0,0,1-1.39-1.44,1.46,1.46,0,0,1,1.53-1.35A1.39,1.39,0,0,1,496.37,130.7Z" style="fill:#263238"></path><path d="M497.55,126.08c-.2.17-1.24-.74-2.8-.86s-2.78.56-2.94.35.14-.42.67-.74a4.05,4.05,0,0,1,2.37-.52,3.94,3.94,0,0,1,2.21.92C497.51,125.64,497.64,126,497.55,126.08Z" style="fill:#263238"></path><path d="M482.27,129.88a1.47,1.47,0,0,1-1.53,1.35,1.4,1.4,0,0,1-1.39-1.44,1.45,1.45,0,0,1,1.52-1.35A1.41,1.41,0,0,1,482.27,129.88Z" style="fill:#263238"></path><path d="M482.16,125.16c-.2.17-1.23-.74-2.8-.86s-2.78.56-2.93.35.13-.42.66-.74a4.09,4.09,0,0,1,2.37-.52,3.91,3.91,0,0,1,2.21.92C482.12,124.72,482.25,125.08,482.16,125.16Z" style="fill:#263238"></path><path d="M486.77,137.67a10.27,10.27,0,0,1,2.58-.25c.41,0,.79-.06.88-.32a2.06,2.06,0,0,0-.16-1.21q-.45-1.5-.93-3.15c-1.28-4.47-2.17-8.14-2-8.19s1.36,3.54,2.64,8l.88,3.16a2.38,2.38,0,0,1,.08,1.59,1,1,0,0,1-.71.53,2.82,2.82,0,0,1-.69,0A10.5,10.5,0,0,1,486.77,137.67Z" style="fill:#263238"></path><path d="M483.07,120.3c-.24.38-1.73-.17-3.57-.36s-3.42,0-3.57-.47c-.07-.2.28-.53.95-.8a6.09,6.09,0,0,1,2.8-.32,6,6,0,0,1,2.65,1C482.93,119.71,483.19,120.12,483.07,120.3Z" style="fill:#e0e0e0"></path><path d="M498,121.48c-.35.33-1.6-.13-3.13-.25s-2.86,0-3.13-.35c-.12-.19.11-.53.7-.83a5.25,5.25,0,0,1,5.05.48C498,120.93,498.16,121.31,498,121.48Z" style="fill:#e0e0e0"></path><path d="M465,129.54c-.17-.09-6.83-2.65-7.19,4.34s6.73,5.9,6.75,5.7S465,129.54,465,129.54Z" style="fill:#ffbf9d"></path><path d="M462.58,136.83s-.12.08-.33.16a1.2,1.2,0,0,1-.91,0,3,3,0,0,1-1.26-2.77,4.13,4.13,0,0,1,.43-1.73,1.42,1.42,0,0,1,1-.89.63.63,0,0,1,.7.37c.08.2,0,.34.07.36s.15-.11.11-.4a.82.82,0,0,0-.25-.46,1,1,0,0,0-.67-.21,1.69,1.69,0,0,0-1.32,1,4.13,4.13,0,0,0-.53,1.92c0,1.41.63,2.77,1.62,3.11a1.31,1.31,0,0,0,1.13-.12C462.56,137,462.61,136.84,462.58,136.83Z" style="fill:#ff9a6c"></path><path d="M496.06,110c1.16-.57-2.08-4.38-4.81-5.76-4.12-2.09-10.48-3.54-14.41-2.6-4.72,1.12-8.69,3.28-11.22,7.42A27.57,27.57,0,0,0,461.94,123a8.32,8.32,0,0,0,.8,4.31c.91,1.59,2.74,2.64,2.57,4.77a3,3,0,0,0,.64,2.17c1.22,1.41,2.84.2,3.61-1,1.65-2.67,2-5.93,2.23-9.06a20.43,20.43,0,0,0-.16-6.67c-.29-1.18-.79-2.31-1-3.5a4.22,4.22,0,0,1,.65-3.47,4.14,4.14,0,0,1,.59-.55,7.3,7.3,0,0,1,7.29-1.07c3.88,1.56,10.51,3.93,12.33,2.67a10.76,10.76,0,0,0,3.26-3Z" style="fill:#e0e0e0"></path><path d="M481.8,138.43c.24,0,.19,1.6,1.52,2.79s3,1.08,3.05,1.31-.39.29-1.12.29a4,4,0,0,1-2.55-1,3.5,3.5,0,0,1-1.17-2.34C481.5,138.81,481.69,138.42,481.8,138.43Z" style="fill:#263238"></path><path d="M489.09,284.79s-4,26.47-6,38.23-4.09,27-5.12,39.23c-1.06,12.43-.31,16.79-.68,32.12s-7.42,38.85-7.42,38.85H453.19c0-1.07-2.06-33.83-2.06-43.84s.49-11.66-1.43-18.79-2.48-16.38-2.09-31.35-4.31-45.15-4.31-45.15l1.53-48.82s29.24,18.17,37.7,23.16,8.57,3.88,8.57,3.88Z" style="fill:#263238"></path><path d="M468.57,429.12a22.62,22.62,0,0,1,3.65,11.47c.06,1.86,0,3.86-1,5.36-.84,1.19-2.24,1.94-2.82,3.29-.65,1.52-.06,3.28-.28,4.92-.29,2.15-3,4.27-5,5.14s-3.65.77-5.74.92c-3,.23-5.7.24-8.15-1.62a8,8,0,0,1-2.94-6.23,11.89,11.89,0,0,1,2.14-6.72c1.13-1.68,2.6-3.14,3.42-5a48.42,48.42,0,0,0,2.31-9.28s.92-1.3,5.1-1.42,6,4.44,7.43,3.24S468.57,429.12,468.57,429.12Z" style="fill:#263238"></path><path d="M446.39,455.13a14.66,14.66,0,0,0,6,2.76,18.48,18.48,0,0,0,6.63.05,9.56,9.56,0,0,0,4.28-1.82c1.59-1.48,2.19-2.2,2.6-3.5s.07-2.93.55-4.29c.52-1.52,1.94-2.47,3-3.67,1.38-1.61,2.67-4.1,2.54-6.24a6.9,6.9,0,0,1,.44,7c-1,1.67-2.78,2.72-3.6,4.47-.72,1.53,0,3.12-.43,4.75-.66,2.28-3.13,4.27-5.25,5.18a15.17,15.17,0,0,1-6.78.92,14.76,14.76,0,0,1-5.56-1.24,7.67,7.67,0,0,1-4-4.06" style="fill:#455a64"></path><path d="M458.94,446.44c-.07.13-1.51-.59-3.45-.86s-3.51,0-3.54-.16a5.94,5.94,0,0,1,3.62-.35A5.81,5.81,0,0,1,458.94,446.44Z" style="fill:#fff"></path><path d="M459.75,443.6c-.07.14-1.52-.59-3.45-.86s-3.52,0-3.55-.15a5.83,5.83,0,0,1,3.63-.36A5.93,5.93,0,0,1,459.75,443.6Z" style="fill:#fff"></path><path d="M461.46,440.86c-.08.14-1.52-.58-3.45-.85s-3.52,0-3.55-.16a5.94,5.94,0,0,1,3.62-.35A6,6,0,0,1,461.46,440.86Z" style="fill:#fff"></path><path d="M457.42,437.56a3.76,3.76,0,0,1,.35-.93,13.68,13.68,0,0,1,1.33-2.36,4.11,4.11,0,0,1,1.4-1.34,1.14,1.14,0,0,1,1.21.1,1.38,1.38,0,0,1,.48,1.17,4.14,4.14,0,0,1-1.12,2.22,6.38,6.38,0,0,1-2.13,1.53,3.06,3.06,0,0,1-2.66,0,4.82,4.82,0,0,1-1.79-1.67c-.22-.31-.42-.63-.6-.94a1.88,1.88,0,0,1-.25-.55.58.58,0,0,1,.06-.4.5.5,0,0,1,.36-.23,1,1,0,0,1,.58.1l.46.2a5.45,5.45,0,0,1,.78.49,5.1,5.1,0,0,1,1.68,2.15,2.39,2.39,0,0,1,.24,1,7.4,7.4,0,0,1-.42-.88,5.4,5.4,0,0,0-1.71-1.95,6.66,6.66,0,0,0-.75-.42,2,2,0,0,0-.79-.24c-.06,0-.07,0-.05.13a1.2,1.2,0,0,0,.2.39c.19.3.38.61.6.9a4.33,4.33,0,0,0,1.63,1.49,2.53,2.53,0,0,0,2.23,0,5,5,0,0,0,3-3.3,1,1,0,0,0-.29-.79.7.7,0,0,0-.74-.06,4,4,0,0,0-1.29,1.17,18.69,18.69,0,0,0-1.44,2.24A4,4,0,0,1,457.42,437.56Z" style="fill:#fff"></path><path d="M468.48,437.83c.14,0,.15.94-.34,2s-1.22,1.6-1.31,1.49.4-.78.84-1.72S468.34,437.81,468.48,437.83Z" style="fill:#fff"></path><path d="M411.84,186.47s-16.88-2-17.5,20c-.53,18.91-2.62,69.86-2.62,69.86l19.74-1.51s7.11-30.64,7.48-43.12a82,82,0,0,0-3-23.52Z" style="fill:#263238"></path><path d="M444.83,245.27s-9.42-38.39-18.22-52.31c-4.14-6.55-14.77-6.49-14.77-6.49s-1.86,77.33,2.62,85.17,13.45,16.74,24.66,19.59l4.11,2.86Z" style="fill:#263238"></path><path d="M440.83,262a6.21,6.21,0,0,1,.33,1.15c.19.75.43,1.84.7,3.18.54,2.7,1.2,6.44,1.74,10.6s.87,7.95,1,10.69c.08,1.38.13,2.49.14,3.26a6.18,6.18,0,0,1,0,1.19,4.68,4.68,0,0,1-.17-1.18c-.09-.87-.19-2-.31-3.24-.25-2.73-.64-6.5-1.18-10.65s-1.13-7.89-1.58-10.6c-.22-1.27-.39-2.34-.54-3.21A4.74,4.74,0,0,1,440.83,262Z" style="fill:#455a64"></path><path d="M418.86,199.58a3.7,3.7,0,0,1,.19.68c.11.5.25,1.15.43,2s.4,1.9.58,3.13.46,2.61.63,4.17.4,3.25.53,5.08.25,3.79.34,5.86a124.83,124.83,0,0,1-.39,13.43,122.57,122.57,0,0,1-2,13.29c-.45,2-.86,3.94-1.36,5.71s-.95,3.42-1.42,4.91-.94,2.82-1.35,4-.79,2.17-1.13,3-.57,1.38-.77,1.85a3,3,0,0,1-.3.64,3.79,3.79,0,0,1,.2-.67c.18-.49.4-1.11.68-1.9s.67-1.81,1-3,.86-2.51,1.28-4,.92-3.13,1.35-4.91.87-3.68,1.31-5.69a131,131,0,0,0,1.94-13.25,132.52,132.52,0,0,0,.43-13.37c-.08-2.06-.13-4-.29-5.84s-.29-3.52-.47-5.07-.38-2.94-.54-4.16-.34-2.28-.5-3.14-.25-1.48-.34-2A4.46,4.46,0,0,1,418.86,199.58Z" style="fill:#455a64"></path><path d="M403.15,216a3.75,3.75,0,0,0-1.65-1,1.48,1.48,0,0,0,1.53-1.37,2.3,2.3,0,0,0-1-1.94,5.19,5.19,0,0,0-2.13-.79,25.07,25.07,0,0,1-2.88-.66l-5.43-.65c-1,.29-1.33,3.16-.11,3.81-.71.18-1.1.07-1.61.6a2.32,2.32,0,0,0-.65,2,1.67,1.67,0,0,0,1.51,1.35,2.71,2.71,0,0,0-.41,4.54,2.66,2.66,0,0,0,.89.48,1.27,1.27,0,0,0,.37.1l.17,0c.25-.11.48-.27.74-.36l.3-.1a5.16,5.16,0,0,1,1.41-.19,5,5,0,0,0,.67,0,2.9,2.9,0,0,0,.41-.16,6.72,6.72,0,0,1,2.79-.06,5.3,5.3,0,0,0,3-.3,2,2,0,0,0,1-2.56,1.33,1.33,0,0,0,1.52-.89A1.93,1.93,0,0,0,403.15,216Z" style="fill:#ffbf9d"></path><path d="M390.58,225a2.18,2.18,0,0,0,.46,1.77,3.63,3.63,0,0,0,2.36.71c.23-.86.29-1.31.51-2.17,0-.18,0-.34.13-.49.32-.38,1.27-.25,1.75-.38a1.67,1.67,0,0,0,1-2.05,2.26,2.26,0,0,0-1.91-1.5,3.5,3.5,0,0,0-2.4.73A4.89,4.89,0,0,0,390.58,225Z" style="fill:#ffbf9d"></path><path d="M390.51,217.5a29,29,0,0,1,5.82.41c3.2.38,5.77.82,5.75,1a29,29,0,0,1-5.82-.41C393.06,218.11,390.49,217.67,390.51,217.5Z" style="fill:#ff9a6c"></path><path d="M391.37,213.37a16.18,16.18,0,0,1,5.29.25,16.41,16.41,0,0,1,5.11,1.37c0,.17-2.34-.34-5.2-.79A43.77,43.77,0,0,1,391.37,213.37Z" style="fill:#ff9a6c"></path><path d="M391.63,209.46c0-.17,2-.1,4.36.37a17.64,17.64,0,0,1,4.23,1.12c0,.17-2-.07-4.34-.54A24.87,24.87,0,0,1,391.63,209.46Z" style="fill:#ff9a6c"></path><path d="M391.16,223.78c-.07,0-.14-.43.18-1a3.27,3.27,0,0,1,2-1.47,6.36,6.36,0,0,1,2.43-.23c.71.12.89.66.79.66s-.29-.26-.83-.25a12.25,12.25,0,0,0-2.22.39,3.54,3.54,0,0,0-1.8,1.13C391.34,223.43,391.25,223.79,391.16,223.78Z" style="fill:#ff9a6c"></path></g><g id="freepik--character-2--inject-38"><path d="M249.93,357.75s7.94,13.47,10.07,18.52c1.35,3.22,7.25,18,9.09,23.26s14.31,36.93,14.31,36.93l15.55-1.6s-9.22-42.38-11.3-51.61-9.09-25.5-9.09-25.5Z" style="fill:#ffbf9d"></path><path d="M186.68,351.49c-.19.79-3.55,17.38-2.76,29.23s6.52,53.52,6.52,53.52h12.24s3-32.78,4.34-41.37.2-23.8,0-26.17a81.59,81.59,0,0,1,.67-9.48Z" style="fill:#ffbf9d"></path><path d="M204.13,251.41s-15.19,24-18.54,61.68-4,42.56-4,42.56L217,359.1l9.32-45.23L233,359l48.18-1.62s-10.81-45.17-12.63-55.81-7-24.06-7-24.06l-.61-6.32L230.11,269Z" style="fill:#263238"></path><path d="M319.06,446.94a38,38,0,0,1-11.58,2.37c-5.45,0-13.6-1.23-16.6-1.65s-11.46,1.33-12.32-1.61,2.66-14.37,2.66-14.37,2.68,3.08,5.65,2.72a56.62,56.62,0,0,0,8.62-2.41s2.18-4.1,3.87-4.4,1.54,4.61,1.54,4.61,4.67,5.48,7.64,6.5,3.15,1.89,6.5,1.69a9,9,0,0,1,5,.9s1.77,2.61,1.07,3.66A9,9,0,0,1,319.06,446.94Z" style="fill:#263238"></path><path d="M321.19,444.89a6.76,6.76,0,0,1-2.12,2.1,38,38,0,0,1-11.58,2.37c-5.45,0-13.6-1.23-16.6-1.65s-11.46,1.33-12.31-1.62a4.91,4.91,0,0,1-.08-2.53s8.86,1.61,13,1.19,13.34,1.76,18.07,1.33a59.08,59.08,0,0,0,9.95-2l1.48-1C321.28,443.75,321.56,444.21,321.19,444.89Z" style="fill:#455a64"></path><path d="M307.41,438a10.53,10.53,0,0,1-.45,1.6,10.41,10.41,0,0,1-.9,1.39,2.8,2.8,0,0,0,1.35-3Z" style="fill:#fff"></path><path d="M304.48,435.78a9.11,9.11,0,0,1-.67,1.87,9.43,9.43,0,0,1-1.25,1.54,3.44,3.44,0,0,0,1.92-3.41Z" style="fill:#fff"></path><path d="M302.35,433.64a14,14,0,0,0-1,1.34c-.55.71-1.11,1.2-1.07,1.27a4.28,4.28,0,0,0,2.05-2.61Z" style="fill:#fff"></path><path d="M286.5,441.29a4.92,4.92,0,0,0,1.14.13c.7,0,1.68.05,2.75,0a27.49,27.49,0,0,0,2.75-.23,3.91,3.91,0,0,0,1.12-.22c0-.08-1.74.09-3.88.17S286.5,441.21,286.5,441.29Z" style="fill:#fff"></path><path d="M203,429.72a22.52,22.52,0,0,1,3.65,11.47c.07,1.86,0,3.86-1,5.36-.84,1.19-2.24,1.94-2.81,3.29-.65,1.52-.06,3.28-.29,4.92-.29,2.15-3,4.27-4.95,5.14s-3.66.77-5.75.92c-3,.22-5.7.24-8.15-1.62a8.06,8.06,0,0,1-2.94-6.23,11.9,11.9,0,0,1,2.15-6.72c1.13-1.68,2.6-3.15,3.41-5a48.31,48.31,0,0,0,2.31-9.27s.92-1.3,5.11-1.42,6,4.44,7.42,3.24S203,429.72,203,429.72Z" style="fill:#263238"></path><path d="M180.82,455.73a14.92,14.92,0,0,0,6,2.76,18.48,18.48,0,0,0,6.63.05,9.52,9.52,0,0,0,4.28-1.82c1.6-1.48,2.19-2.2,2.6-3.5s.08-2.93.55-4.29c.53-1.52,1.95-2.47,3-3.67,1.38-1.61,2.66-4.1,2.53-6.24a6.88,6.88,0,0,1,.44,7c-1,1.68-2.78,2.73-3.6,4.48-.71,1.53,0,3.11-.43,4.75-.66,2.28-3.12,4.27-5.25,5.17a15,15,0,0,1-6.78.93,14.71,14.71,0,0,1-5.55-1.24,7.72,7.72,0,0,1-4-4.06" style="fill:#455a64"></path><path d="M193.38,447c-.08.14-1.52-.58-3.45-.85s-3.52,0-3.55-.16a7.6,7.6,0,0,1,7,1Z" style="fill:#fff"></path><path d="M194.18,444.2c-.07.14-1.51-.59-3.45-.86s-3.52,0-3.55-.15a7.59,7.59,0,0,1,7,1Z" style="fill:#fff"></path><path d="M195.89,441.46c-.07.14-1.52-.58-3.45-.85s-3.52,0-3.55-.16a7.6,7.6,0,0,1,7,1Z" style="fill:#fff"></path><path d="M191.85,438.16a3.61,3.61,0,0,1,.35-.93,14.39,14.39,0,0,1,1.33-2.36,4.06,4.06,0,0,1,1.41-1.34,1.12,1.12,0,0,1,1.2.1,1.38,1.38,0,0,1,.48,1.17A4.08,4.08,0,0,1,195.5,437a6.25,6.25,0,0,1-2.13,1.53,3.06,3.06,0,0,1-2.66,0,4.9,4.9,0,0,1-1.79-1.67c-.22-.32-.41-.63-.6-.94a1.88,1.88,0,0,1-.25-.55.54.54,0,0,1,.07-.4.46.46,0,0,1,.35-.23,1,1,0,0,1,.59.1,4.68,4.68,0,0,1,.45.2,4.28,4.28,0,0,1,.78.48,5.24,5.24,0,0,1,1.69,2.16,2.07,2.07,0,0,1,.23,1s-.13-.33-.42-.89a5.47,5.47,0,0,0-1.71-1.94,5.27,5.27,0,0,0-.74-.42,2.05,2.05,0,0,0-.79-.24c-.07,0-.07,0-.06.13a1.44,1.44,0,0,0,.2.39c.19.3.39.61.6.9a4.49,4.49,0,0,0,1.63,1.49,2.56,2.56,0,0,0,2.23,0,5,5,0,0,0,3-3.29.91.91,0,0,0-.29-.79.68.68,0,0,0-.74-.06,3.89,3.89,0,0,0-1.28,1.17,17.78,17.78,0,0,0-1.45,2.24C192.07,437.88,191.89,438.18,191.85,438.16Z" style="fill:#fff"></path><path d="M202.92,438.43c.14,0,.14.94-.35,2s-1.22,1.59-1.31,1.49.4-.79.84-1.72S202.77,438.41,202.92,438.43Z" style="fill:#fff"></path><path d="M329.64,140.82c-4.39,0-29.9,13.77-37,20.14-4.83,4.35-22.89,20.14-22.89,20.14l12,9.74,12.9,1.13.75-4.27,11.78-10.23s16.69-9.26,22.32-16.73l38.24,9,6.11-9.28S342.54,140.82,329.64,140.82Z" style="fill:#ffbf9d"></path><path d="M368.24,171.16s.76,7.11,1.41,9.91,2.91,5.07,2.91,6.9a7.94,7.94,0,0,0,.54,3s2.26.22,2.47-2.48,0-7.43,0-7.43,3.67,5.49,6.26,6.68,8.51,1.4,8.62.32.86-1.16-1.08-2a34,34,0,0,0-4-1.36l-3.55-3a29.2,29.2,0,0,0,5.06,1.94c1.73.32,6.79,1.19,7.12.43a2.41,2.41,0,0,0-.86-3s1.83-.44,1.83-1.62-.76-2.27-1.4-2.16a29.49,29.49,0,0,1-4.85-.86c-.33-.11-3.88-2.91-3.88-2.91l.21-.65s2.37,2.59,3.67,2.48,3.55-.11,3.55-.75.22-2.27-1.4-2.27a2.88,2.88,0,0,1-2.37-1.18l-3.23-1.73a70.46,70.46,0,0,0-5-6.36c-1.73-1.72-7-2.91-7-2.91l-5.65,9.17Z" style="fill:#ffbf9d"></path><path d="M377.79,168.21a4.64,4.64,0,0,1,.89,1.82,10.39,10.39,0,0,1-1.62,9.43,4.85,4.85,0,0,1-1.45,1.42c-.06-.06.48-.61,1.15-1.64a11.77,11.77,0,0,0,1.75-4.39,11.92,11.92,0,0,0-.18-4.72C378,168.94,377.71,168.24,377.79,168.21Z" style="fill:#ff9a6c"></path><path d="M303.11,219l39.58-15.07c10-3.43,16.28-12.09,12.57-22l-.39-.89a18.85,18.85,0,0,0-23.45-10.15c-8.62,3-18.11,6.47-22.55,8.5-9.2,4.22-6.54,14.1-6.54,14.1s-5.69,2.32-8.45,3.4l-2.39,7.33h0Z" style="fill:#ffbf9d"></path><path d="M302.33,193.53a24.49,24.49,0,0,0,8.9,10.46s-8.23.19-11.49-9.41Z" style="fill:#ff9a6c"></path><path d="M325.28,178.37a1.44,1.44,0,0,0-.77,1.86,1.39,1.39,0,0,0,1.8.83,1.44,1.44,0,0,0,.77-1.86A1.38,1.38,0,0,0,325.28,178.37Z" style="fill:#263238"></path><path d="M328.21,174.71c-.1.24,1.08.91,1.71,2.33s.37,2.78.62,2.86.34-.27.47-.87a3.94,3.94,0,0,0-.28-2.38,3.79,3.79,0,0,0-1.58-1.76C328.63,174.6,328.25,174.59,328.21,174.71Z" style="fill:#263238"></path><path d="M330.4,191.33a1.44,1.44,0,0,0-.77,1.86,1.39,1.39,0,0,0,1.8.84,1.46,1.46,0,0,0,.77-1.87A1.39,1.39,0,0,0,330.4,191.33Z" style="fill:#263238"></path><path d="M334.05,188.78c-.1.24,1.09.91,1.71,2.34s.38,2.77.62,2.85.35-.26.48-.86a4,4,0,0,0-.28-2.38A3.83,3.83,0,0,0,335,189C334.47,188.68,334.09,188.67,334.05,188.78Z" style="fill:#263238"></path><path d="M320.88,188.52a10.7,10.7,0,0,0-.61-2.49c-.12-.38-.2-.75,0-.92a1.93,1.93,0,0,1,1.18-.24l3.24-.15c4.59-.25,8.3-.61,8.29-.79s-3.74-.13-8.34.12l-3.23.2a2.3,2.3,0,0,0-1.51.45,1,1,0,0,0-.27.83,3,3,0,0,0,.19.65A9.43,9.43,0,0,0,320.88,188.52Z" style="fill:#263238"></path><path d="M338.29,186.35c-.27.35.72,1.56,1.5,3.23s1.14,3.17,1.59,3.18c.21,0,.41-.44.44-1.16a5.79,5.79,0,0,0-.61-2.71,6,6,0,0,0-1.74-2.17C338.89,186.3,338.43,186.19,338.29,186.35Z" style="fill:#263238"></path><path d="M332.36,172.79c-.2.44.63,1.46,1.24,2.85s.88,2.68,1.34,2.81c.22.05.46-.28.55-.93A4.92,4.92,0,0,0,335,175a4.83,4.83,0,0,0-1.62-2C332.86,172.61,332.46,172.59,332.36,172.79Z" style="fill:#263238"></path><path d="M335.51,206.21c.14.12,4.69,5.52-1.72,8.12s-7.7-4.37-7.52-4.46S335.51,206.21,335.51,206.21Z" style="fill:#ffbf9d"></path><path d="M329.5,210.84s0,.15-.05.37a1.19,1.19,0,0,0,.32.84,3,3,0,0,0,3,.27,3.84,3.84,0,0,0,1.47-1,1.38,1.38,0,0,0,.52-1.18.61.61,0,0,0-.57-.54c-.22,0-.33.08-.35.05s.05-.18.33-.24a.83.83,0,0,1,.51.09.93.93,0,0,1,.41.55,1.69,1.69,0,0,1-.52,1.57,4.13,4.13,0,0,1-1.63,1.12,3.13,3.13,0,0,1-3.43-.51,1.29,1.29,0,0,1-.24-1.09C329.35,210.92,329.48,210.83,329.5,210.84Z" style="fill:#ff9a6c"></path><path d="M321.77,193.41c-.07-.22-1.55.35-3.1-.51s-2-2.49-2.2-2.42-.15.46.09,1.13a3.92,3.92,0,0,0,1.76,2.06,3.43,3.43,0,0,0,2.56.33C321.52,193.82,321.82,193.51,321.77,193.41Z" style="fill:#263238"></path><path d="M334.76,154.6a1.66,1.66,0,0,1,1.17.35,5,5,0,0,1,1.37,2.24,14.55,14.55,0,0,0,3.86,5.26,7,7,0,0,1,.51-2.21,4.34,4.34,0,0,1,3.52-2.79,1,1,0,0,1,.82.25c.3.36,0,.89-.17,1.32a3.76,3.76,0,0,0,0,3.82,6.1,6.1,0,0,0,1.72,2.14l.12,0,1.39.58h0c3.37,1.43,5.87,2.83,7.6,4.61a23.56,23.56,0,0,1,5.66,11.25c.47,3.61-1,7.61-4.13,9.43,2.29,1.2,3.39,4,3.41,6.54l.05,0c.12,2.84-1.92,5.31-4.15,7.08l-.37.28a10.52,10.52,0,0,0-1.9,4.67c0,.3-.1.64-.37.78a.88.88,0,0,1-.83-.15,5.26,5.26,0,0,1-1.65-1.67,12,12,0,0,0-1.41,1.53c-.36.48-.79,1-1.39,1a1.15,1.15,0,0,1-.92-.9,3.33,3.33,0,0,1,.05-1.37L347,210.37a6.32,6.32,0,0,1-.92-2.77c-2.58.44-7.12,1.83-9,1.87-.72-1.69-.71-2.17-1.34-2.92-.82-1-2.61.27-2.64-1.4,0-.85,2.3-3.12,3-3.67a39.59,39.59,0,0,1,14.84-7.9,12.92,12.92,0,0,0,1.14-4.7L352,189c-.16-3-.47-6.32-2.72-8.3-1.74-1.54-4.2-1.86-6.38-2.65a14.47,14.47,0,0,1-8.85-7.93c-3,.79-7.65,2.57-10.34,3.5l4.36-4.4h0c.23-.31.48-.58.73-.86l.08-.08h0a17.47,17.47,0,0,0,1.2-1.35l0,0a1.78,1.78,0,0,1,1.22-3.31,4.09,4.09,0,0,1,1.12.47,2.8,2.8,0,0,1-1.65-2.22,2.21,2.21,0,0,1,1.43-2.27,1.86,1.86,0,0,1,1.82.47,6.4,6.4,0,0,1-.63-3.65C333.48,155.62,333.83,154.72,334.76,154.6Z" style="fill:#263238"></path><path d="M355.87,188.38a10.68,10.68,0,0,1-.48,1.29,7.29,7.29,0,0,1-2.53,2.71,12.49,12.49,0,0,1-2.28,1.21c-.86.36-1.81.66-2.82,1a26,26,0,0,0-3.1,1.18,12.25,12.25,0,0,0-1.53.87,3.73,3.73,0,0,0-1.31,1.31,1.52,1.52,0,0,0,.1,1.5,2.29,2.29,0,0,0,1.16.92,5.32,5.32,0,0,0,2.75-.07l-.11-.19a8.3,8.3,0,0,0-1.49,1.94,3,3,0,0,0-.25,2.23,1.92,1.92,0,0,0,.56.9,1.76,1.76,0,0,0,1.83.25,1.25,1.25,0,0,0,.6-.6l-.13-.06a6.63,6.63,0,0,0-.68,2.63,5.22,5.22,0,0,0,0,.72,1.79,1.79,0,0,0,0,.25,1,1,0,0,0,0-.25c0-.16,0-.4,0-.72a7,7,0,0,1,.74-2.57l-.13-.06a1.29,1.29,0,0,1-1.36.63,1.52,1.52,0,0,1-.82-.36,1.8,1.8,0,0,1-.5-.82,2.81,2.81,0,0,1,.25-2.07,8.6,8.6,0,0,1,1.48-1.89l.24-.25-.35.07a5.06,5.06,0,0,1-2.62.07,2.06,2.06,0,0,1-1-.82,1.28,1.28,0,0,1-.08-1.28,3.37,3.37,0,0,1,1.22-1.21,11.83,11.83,0,0,1,1.5-.86,26.83,26.83,0,0,1,3.07-1.19c1-.33,2-.65,2.83-1a12.75,12.75,0,0,0,2.3-1.25,7.2,7.2,0,0,0,2.51-2.81A4.22,4.22,0,0,0,355.87,188.38Z" style="fill:#455a64"></path><path d="M334.91,163.1l0,.1a2.86,2.86,0,0,1-.08.31,3.83,3.83,0,0,0-.09.5c0,.2-.06.43-.07.69a9.06,9.06,0,0,0,.92,4.31,11.42,11.42,0,0,0,4.4,4.8,19.78,19.78,0,0,0,7.58,2.58c1.42.22,2.81.3,4.13.47a13.64,13.64,0,0,1,3.71.93,6.89,6.89,0,0,1,2.74,2,5.07,5.07,0,0,1,.75,1.36,6,6,0,0,1,.28,1.41,5.76,5.76,0,0,1-.38,2.43,5.91,5.91,0,0,1-.94,1.62,6.93,6.93,0,0,1-1.21,1.06l.09,0,.27-.16a5,5,0,0,0,.92-.79,5.89,5.89,0,0,0,1.41-4.12,5.5,5.5,0,0,0-.27-1.46,5.43,5.43,0,0,0-.76-1.42,7.1,7.1,0,0,0-2.81-2.11,13.82,13.82,0,0,0-3.77-1c-1.33-.18-2.72-.26-4.12-.48a19.9,19.9,0,0,1-7.51-2.52,11.4,11.4,0,0,1-4.36-4.69,9.15,9.15,0,0,1-1-4.24C334.77,163.67,335,163.11,334.91,163.1Z" style="fill:#455a64"></path><path d="M338.68,160.57a1.78,1.78,0,0,0-.09.43,8,8,0,0,0-.1,1.2,9.81,9.81,0,0,0,.12,1.79,11.51,11.51,0,0,0,.56,2.12,11.76,11.76,0,0,0,1,2,11.05,11.05,0,0,0,1.07,1.43,9.39,9.39,0,0,0,.86.85,1.65,1.65,0,0,0,.36.26s-.45-.44-1.09-1.22a11.08,11.08,0,0,1-1-1.44,13,13,0,0,1-.93-1.94,13.23,13.23,0,0,1-.56-2.08,10.82,10.82,0,0,1-.17-1.75C338.63,161.2,338.73,160.57,338.68,160.57Z" style="fill:#455a64"></path><path d="M258.89,188.43c8.25-7.51,22.41-19.1,22.41-19.1S283.17,172,290,178a56.65,56.65,0,0,0,12.45,8.15l-5.23,7.59a2.57,2.57,0,0,1-1.1,2.81c-2.41,2-2.58,7-1.25,11,1.84,5.52,14.76,9.85,14.76,9.85s4.31,8.09,5.32,10.94,3.81,11.86,3.81,11.86L298,253.88l-15.35,3-13,6.42v4.15l-3.64,2.11-2.52,11.84S237.73,287.6,224.5,279a158.63,158.63,0,0,1-25.44-21.07s18.28-26.48,22-31.1C221.06,226.82,251.1,195.51,258.89,188.43Z" style="fill:#F18F01"></path><path d="M290,194.86a9.34,9.34,0,0,1,7.24-1.39c0,.15-1.68.07-3.67.46S290,195,290,194.86Z" style="fill:#263238"></path><path d="M261.75,251.72c.13-.08,1.71,2.2,3.91,4.82s4.15,4.59,4,4.7a22.32,22.32,0,0,1-4.45-4.37A22.58,22.58,0,0,1,261.75,251.72Z" style="fill:#263238"></path><path d="M253.4,263.33a42.37,42.37,0,0,1,6.38,2.25,44.55,44.55,0,0,1,6.18,2.73,42.8,42.8,0,0,1-6.38-2.25A45.29,45.29,0,0,1,253.4,263.33Z" style="fill:#263238"></path><path d="M266.07,290.43c.5,0,33.24-7.47,33.24-7.47l-.62-22.19-.65-9.18,20.68-8s-.6-2.08,0,10.1l.57,7.64s-1.7,24.13-2.71,28.82-3.17,8.44-9.17,9.13c-5.32.61-41.34,2.68-41.34,2.68Z" style="fill:#ffbf9d"></path><path d="M266.07,290.43s-.14-6.94-1.91-8.57-9.55-6-11-4.55-.8,1.49,1,2.23,7.28,3,6.36,3-9.16-4.79-9.6-2.67,2,2.81,2,2.81-1,1.5,1.76,4.22a14.35,14.35,0,0,0,5.82,3.54s-5.95-2-6.36,0,1.22,2.44,3.4,3.25a46.26,46.26,0,0,1,4.48,2s1.76,7.69,3,7.59a23.67,23.67,0,0,0,4.22-1.33Z" style="fill:#ffbf9d"></path><path d="M298,251.59v11.67l22.54-3.38s.08-13.58-3-23.28Z" style="fill:#F18F01"></path><path d="M315.78,241c0,.09-1.12.1-2.88.4a21.19,21.19,0,0,0-12,6.59c-1.2,1.32-1.81,2.27-1.89,2.22a2.4,2.4,0,0,1,.36-.71,12.89,12.89,0,0,1,1.25-1.75A19.13,19.13,0,0,1,312.84,241a14.11,14.11,0,0,1,2.15-.12A2.66,2.66,0,0,1,315.78,241Z" style="fill:#263238"></path></g><g id="freepik--character-1--inject-38"><path d="M101.17,292.58c.92.57,1.83,12.19,1.35,21.45-.64,12-4.64,34.63-4.64,34.63L68.73,372.81s-1.4-31.34-1.17-35.94S62.82,321,61.47,319.48s-11.29-9-14.08-18.58c-4.56-15.67-.93-24.33-.93-24.33l8.83-22.45L84,262.83Z" style="fill:#263238"></path><path d="M100.89,287.38s6.13,44.89-5.65,77.22c-2.54,7-2.84,14.16-2.94,20.95-.08,5.83-3.43,48.32-3.43,48.32L67.78,435.6s-6.09-32.84-6.2-41,.48-25.85.77-32.41-.14-50.81-.14-50.81l17.88-21.58Z" style="fill:#263238"></path><path d="M78.78,149A6.3,6.3,0,0,0,79,138l-7.45-1.93q-.59,14.2-1.36,28.4a10.69,10.69,0,0,0,5.48-1.94,4.77,4.77,0,0,0,1.71-5.23,5.07,5.07,0,0,0,3-3.78A5.13,5.13,0,0,0,78.78,149Z" style="fill:#263238"></path><path d="M42.7,146l0-3.36,20.32-3.21c6.24-.46,12.78,6,13,12.25.22,7,.21,15.45-.77,20.61-2,10.36-10,11.44-10,11.44V194c-.12,6-5.22,7.18-11.24,7.06h0a10.9,10.9,0,0,1-10.69-10.74Z" style="fill:#ffbf9d"></path><path d="M73.06,159.78a1.34,1.34,0,0,1-1.33,1.3,1.27,1.27,0,0,1-1.34-1.24,1.33,1.33,0,0,1,1.33-1.31A1.28,1.28,0,0,1,73.06,159.78Z" style="fill:#263238"></path><path d="M73.42,155.38c-.17.16-1.16-.62-2.6-.66s-2.51.65-2.66.47.11-.39.57-.71a3.7,3.7,0,0,1,2.14-.59,3.49,3.49,0,0,1,2.06.74C73.37,155,73.51,155.3,73.42,155.38Z" style="fill:#263238"></path><path d="M59.69,159.78a1.32,1.32,0,0,1-1.33,1.3A1.28,1.28,0,0,1,57,159.84a1.34,1.34,0,0,1,1.33-1.31A1.27,1.27,0,0,1,59.69,159.78Z" style="fill:#263238"></path><path d="M59.36,155.26c-.17.17-1.16-.61-2.59-.65s-2.52.65-2.67.46.1-.38.58-.7a3.66,3.66,0,0,1,2.14-.59,3.47,3.47,0,0,1,2.06.74C59.31,154.87,59.45,155.19,59.36,155.26Z" style="fill:#263238"></path><path d="M64.44,166.64a9.59,9.59,0,0,1,2.35-.35c.37,0,.72-.09.79-.33a1.88,1.88,0,0,0-.22-1.1c-.31-.9-.64-1.84-1-2.83-1.39-4-2.37-7.33-2.21-7.39s1.41,3.17,2.8,7.2c.33,1,.65,1.93,1,2.84a2.13,2.13,0,0,1,.14,1.45.88.88,0,0,1-.62.51,2,2,0,0,1-.62.07A9.69,9.69,0,0,1,64.44,166.64Z" style="fill:#263238"></path><path d="M65.25,183.71a27.57,27.57,0,0,1-14.18-4.19s3.38,7.57,14.19,6.95Z" style="fill:#ff9a6c"></path><path d="M58.87,149.85c-.14.39-1.57.2-3.26.4s-3,.67-3.28.32c-.1-.17.14-.54.69-.92a5.71,5.71,0,0,1,2.43-.85,5.45,5.45,0,0,1,2.55.3C58.62,149.35,58.94,149.66,58.87,149.85Z" style="fill:#263238"></path><path d="M73.06,150.78c-.3.3-1.37-.12-2.69-.24s-2.45,0-2.68-.34c-.1-.17.1-.48.61-.75a4,4,0,0,1,2.23-.36,3.92,3.92,0,0,1,2.1.82C73.07,150.28,73.2,150.63,73.06,150.78Z" style="fill:#263238"></path><path d="M80,142.43a6.48,6.48,0,0,0,2.72-6.6,7.37,7.37,0,0,0-4.85-5.39,8.55,8.55,0,0,0-1.5-.33,6.76,6.76,0,0,0-3.21-1,3.49,3.49,0,0,0-2.58-2.81,8.25,8.25,0,0,0-4,0,6.8,6.8,0,0,0-11,.13,5.55,5.55,0,0,0-8.33,3.17,5.52,5.52,0,0,0-4,1.74,5.33,5.33,0,0,0-1,1.4,5.47,5.47,0,0,0-1,2,6.26,6.26,0,0,0-3.19,11.31,5.73,5.73,0,0,0,1,9.12A7.29,7.29,0,0,0,39.4,161a3.53,3.53,0,0,0,1.78,1.77,1.09,1.09,0,0,0,.15.39c.59,1,2.14.62,3.06-.07a12.6,12.6,0,0,0,4.24-7.11c.71-2.72.95-5.55,1.64-8.28,0-.06,0-.12,0-.19a7.66,7.66,0,0,1,1.6-3.07,20.31,20.31,0,0,0,2.44,1.68,8.3,8.3,0,0,0,9.71-1.61,12.18,12.18,0,0,0,7.65,3.07,11.73,11.73,0,0,0,7.8-2.08,3.84,3.84,0,0,0,1.27-1.71A1.18,1.18,0,0,0,80,142.43Z" style="fill:#263238"></path><path d="M44,159.78c-.14-.07-5.53-2.31-6,3.39s5.37,5,5.4,4.81S44,159.78,44,159.78Z" style="fill:#ffbf9d"></path><path d="M41.8,165.68s-.1.06-.28.13a1,1,0,0,1-.74-.05,2.45,2.45,0,0,1-1-2.29,3.41,3.41,0,0,1,.39-1.4,1.16,1.16,0,0,1,.81-.7.49.49,0,0,1,.56.31c.07.17,0,.28,0,.29s.13-.08.11-.32a.71.71,0,0,0-.2-.38.81.81,0,0,0-.54-.19,1.42,1.42,0,0,0-1.11.81,3.4,3.4,0,0,0-.46,1.56A2.6,2.6,0,0,0,40.67,166a1.09,1.09,0,0,0,.92-.08C41.78,165.82,41.82,165.69,41.8,165.68Z" style="fill:#ff9a6c"></path><path d="M82.45,134.87s0,0,0,.14a3.16,3.16,0,0,1,.08.42,4.33,4.33,0,0,1-.11,1.61,4.28,4.28,0,0,1-1.31,2.16,4.48,4.48,0,0,1-3.1,1.12l.11-.08a9.87,9.87,0,0,1-2.6,4.85,7.57,7.57,0,0,1-2.6,1.78,6.29,6.29,0,0,1-3.31.33,11.15,11.15,0,0,1-3.13-.94A8.66,8.66,0,0,1,64,144.54h.17A10.38,10.38,0,0,1,59.23,147a8.1,8.1,0,0,1-4.28-.57,8.61,8.61,0,0,1-2.4-1.5c-.24-.22-.42-.4-.54-.53a1.29,1.29,0,0,1-.16-.2s.25.24.76.67a8.8,8.8,0,0,0,2.4,1.42,8.06,8.06,0,0,0,4.19.5A10.29,10.29,0,0,0,64,144.37l.09-.08.08.09A8.62,8.62,0,0,0,66.64,146a10.76,10.76,0,0,0,3.06.92,6,6,0,0,0,3.17-.31,7.31,7.31,0,0,0,2.52-1.71A9.64,9.64,0,0,0,78,140.2l0-.09h.09a4.31,4.31,0,0,0,3-1.05A4.2,4.2,0,0,0,82.36,137a4.63,4.63,0,0,0,.16-1.58C82.49,135.07,82.44,134.88,82.45,134.87Z" style="fill:#455a64"></path><path d="M42.06,134.5a11.69,11.69,0,0,0-.61,1.93,8.18,8.18,0,0,0,.64,5.13l0,.08-.08.06a5.29,5.29,0,0,0-1.64,2.23,5.06,5.06,0,0,0-.21,3,5.31,5.31,0,0,0,2.26,3.17l.1.06-.06.11a6.55,6.55,0,0,0-.86,3.52,7.17,7.17,0,0,0,.67,2.81,8,8,0,0,0,1.51,2.12.54.54,0,0,1-.15-.11,4.62,4.62,0,0,1-.38-.35,6.25,6.25,0,0,1-1.12-1.59,7.18,7.18,0,0,1-.74-2.87,6.81,6.81,0,0,1,.86-3.66l0,.17A5.47,5.47,0,0,1,40,147a5.24,5.24,0,0,1,.22-3.19,5.42,5.42,0,0,1,1.74-2.32l0,.14a8.07,8.07,0,0,1-.56-5.26A7.76,7.76,0,0,1,41.8,135l.19-.36C42,134.53,42.06,134.49,42.06,134.5Z" style="fill:#455a64"></path><path d="M40.35,167.6a5.2,5.2,0,0,0-.17,1,1.56,1.56,0,0,0,.35,1,1.27,1.27,0,0,0,1.15.4,1,1,0,0,0,.77-.89,2,2,0,0,0-.13-1.07c-.24-.59-.47-.94-.43-1a2.52,2.52,0,0,1,.6.89,2.06,2.06,0,0,1,.2,1.18,1.57,1.57,0,0,1-.27.68,1.22,1.22,0,0,1-.68.43,1.47,1.47,0,0,1-1.39-.5,1.62,1.62,0,0,1-.35-1.15A1.5,1.5,0,0,1,40.35,167.6Z" style="fill:#263238"></path><path d="M58.85,170.5a2.17,2.17,0,0,1,.66-1.4,2.23,2.23,0,0,1,2.69-.34,3,3,0,0,1,1.33,2.72h0a2.68,2.68,0,0,1-1.86,1.26,2.2,2.2,0,0,1-.36,0,2.43,2.43,0,0,1-1.69-.53A2.21,2.21,0,0,1,58.85,170.5Z" style="fill:#ff9a6c"></path><path d="M59.52,167.79c.23,0,.26,1.53,1.61,2.62s3,.88,3,1.1-.36.31-1.06.34a3.88,3.88,0,0,1-2.52-.84,3.41,3.41,0,0,1-1.25-2.19C59.24,168.17,59.41,167.78,59.52,167.79Z" style="fill:#263238"></path><path d="M50.82,269.23c-6.21-5,.73-10.82,1.41-17.32.38-3.55-13.74-30.82-15.35-41.54s2.2-19.3,5.24-22,23.45,1.32,23.45,1.32,27.51,19.14,30.91,31.2c4.13,14.61,2,30.67,2,30.67L86.3,264.74Z" style="fill:#F18F01"></path><path d="M136.44,314.78l4.2-20.06-21.47-3.49.33,14.84-1.93,8.1s3.45,4.89,4.2,4.71S136.44,314.78,136.44,314.78Z" style="fill:#e0e0e0"></path><path d="M157.7,338.17s-7.71,1.14-14-.28-15.41-5-18.76-6.25-13.61-1.45-13.83-5.08,6.83-15.93,6.83-15.93,2.3,4.27,5.82,4.62,10.6-.53,10.6-.53,3.59-4.18,5.63-4.08.58,5.73.58,5.73,4,7.56,7.13,9.52,3.16,3,7.08,3.66,5.61,2.35,5.61,2.35,1.36,3.48.28,4.51A10.91,10.91,0,0,1,157.7,338.17Z" style="fill:#263238"></path><path d="M160.71,336.35a8.08,8.08,0,0,1-3,1.88s-7.72,1.14-14-.29-15.42-5-18.77-6.24-13.61-1.46-13.83-5.09a5.91,5.91,0,0,1,.57-2.94s9.83,4.17,14.78,4.77,15,5.53,20.55,6.26a69.32,69.32,0,0,0,12,.25l2-.73C161.1,335.06,161.3,335.66,160.71,336.35Z" style="fill:#455a64"></path><path d="M146.57,324.75a13.49,13.49,0,0,1-.94,1.73,11.74,11.74,0,0,1-1.41,1.37,2.62,2.62,0,0,0,1.68-1.17A2.68,2.68,0,0,0,146.57,324.75Z" style="fill:#fff"></path><path d="M143.75,321.45a11.29,11.29,0,0,1-1.26,2,13.09,13.09,0,0,1-1.85,1.46,3.35,3.35,0,0,0,2.09-1.24A3.32,3.32,0,0,0,143.75,321.45Z" style="fill:#fff"></path><path d="M141.85,318.41c-.08-.05-.65.62-1.48,1.3a17.68,17.68,0,0,0-1.57,1.19,5.06,5.06,0,0,0,3-2.49Z" style="fill:#fff"></path><path d="M121.51,323.12a5.45,5.45,0,0,0,1.28.45c.81.22,1.93.49,3.19.72s2.4.38,3.24.46a4.74,4.74,0,0,0,1.35,0c0-.09-2-.35-4.53-.81S121.54,323,121.51,323.12Z" style="fill:#fff"></path><path d="M112.45,447.33s-7.25,2.88-13.71,2.94S82.59,449,79,448.5s-13.58,1.7-14.63-1.78,3-17.08,3-17.08,3.21,3.63,6.72,3.16,10.2-2.94,10.2-2.94,2.53-4.89,4.54-5.26,1.88,5.45,1.88,5.45,5.59,6.45,9.13,7.62,3.76,2.21,7.73,1.94,6,1,6,1,2.12,3.07,1.3,4.33A10.91,10.91,0,0,1,112.45,447.33Z" style="fill:#263238"></path><path d="M115,444.87a8,8,0,0,1-2.49,2.51s-7.24,2.88-13.71,2.94-16.14-1.31-19.7-1.77-13.58,1.7-14.62-1.78a5.94,5.94,0,0,1-.13-3s10.53,1.81,15.48,1.26,15.85,1.94,21.44,1.38A69.36,69.36,0,0,0,113,443.89l1.75-1.17C115,443.52,115.37,444.06,115,444.87Z" style="fill:#455a64"></path><path d="M98.53,436.82a13.35,13.35,0,0,1-.51,1.9A14.27,14.27,0,0,1,97,440.38a3.33,3.33,0,0,0,1.57-3.56Z" style="fill:#fff"></path><path d="M95,434.26a11.59,11.59,0,0,1-.77,2.22,12.27,12.27,0,0,1-1.46,1.84,3.38,3.38,0,0,0,1.75-1.68A3.31,3.31,0,0,0,95,434.26Z" style="fill:#fff"></path><path d="M92.48,431.74c-.09,0-.48.75-1.14,1.6s-1.31,1.44-1.25,1.51a5,5,0,0,0,2.39-3.11Z" style="fill:#fff"></path><path d="M73.77,441a4.57,4.57,0,0,0,1.35.14c.83,0,2,0,3.27,0s2.42-.19,3.25-.31a4.93,4.93,0,0,0,1.33-.27c0-.09-2.06.12-4.6.25S73.77,440.89,73.77,441Z" style="fill:#fff"></path><path d="M118.45,223c5.12-2.19,13.57-2.67,17.36-1.43a13.19,13.19,0,0,1,6,4c4.47,5.34,3.73,20,3.45,32.3-.22,10.25-4.65,46.66-4.65,46.66L117.4,305a159.87,159.87,0,0,0-.22-17,35.75,35.75,0,0,0-2.63-11.52s-2.13,6.22-5.3,13.4-13.89,24.6-26.75,25.19c-16.93.78-32-22.68-29-30.89C57.84,272.68,70,261.37,82,252.34c9.55-7.14,15.61-11.76,23.19-19.18C109.66,228.8,114.54,224.68,118.45,223Z" style="fill:#263238"></path><path d="M117.5,241a7.51,7.51,0,0,1-.6,1.33c-.21.41-.46.92-.71,1.53s-.6,1.29-.87,2.07a44,44,0,0,0-1.78,5.55,48.18,48.18,0,0,0-1.16,7,49.77,49.77,0,0,0,0,7.12,45.1,45.1,0,0,0,.84,5.77c.15.81.36,1.54.52,2.18s.31,1.18.45,1.63a7.19,7.19,0,0,1,.37,1.4,8.13,8.13,0,0,1-.56-1.34,16.65,16.65,0,0,1-.54-1.61c-.19-.64-.43-1.36-.6-2.18a40.85,40.85,0,0,1-1-5.81,41.39,41.39,0,0,1,1.19-14.31,38.22,38.22,0,0,1,1.9-5.57c.3-.78.66-1.45.94-2.05s.56-1.1.8-1.51A8.1,8.1,0,0,1,117.5,241Z" style="fill:#455a64"></path><path d="M56.86,301.88c.09-.05.7,1.45,2.19,3.54A22.6,22.6,0,0,0,75.88,315c2.57.19,4.16,0,4.17.05a4.41,4.41,0,0,1-1.11.21,18.42,18.42,0,0,1-3.08.1,21.64,21.64,0,0,1-17.11-9.69,18.68,18.68,0,0,1-1.5-2.69A4.51,4.51,0,0,1,56.86,301.88Z" style="fill:#455a64"></path><path d="M139.43,234l-53.07-5.67-13-21.84s-11.82-17-22.13-18S39.8,197.19,40,203.23s7.26,16.92,7.26,16.92,25.83,30.46,30.9,31.64,59-6.37,59-6.37Z" style="fill:#ffbf9d"></path><path d="M135.83,233.34s6.15-3.12,8.66-3.39,5.69,3.06,5.82,3.39a3.3,3.3,0,0,1,0,1.2s.56,5.13.49,5.66-1.8,7.05-3.26,9a9.43,9.43,0,0,1-3.81,2.8s-5.82-1.93-7.9-3.8a23.57,23.57,0,0,0-3.74-2.79l-2.29-.07,1-11.26Z" style="fill:#ffbf9d"></path><path d="M146.77,229.9a1.22,1.22,0,0,1,1-.35,2.89,2.89,0,0,1,1.06.39,3.78,3.78,0,0,1,1.16.93,1.73,1.73,0,0,1,.39,1.37,1.23,1.23,0,0,1-1,1,2,2,0,0,1-1.17-.29,4.83,4.83,0,0,1-1-.63,2,2,0,0,1-.66-1.08A1.45,1.45,0,0,1,146.77,229.9Z" style="fill:#ffbf9d"></path><path d="M146.77,229.9a1.93,1.93,0,0,0,0,1.28v0a2.21,2.21,0,0,0,1.18,1.29c.65.33,1.5.8,2,.17a1.36,1.36,0,0,0-.19-1.76,4.83,4.83,0,0,0-1.44-1,1.59,1.59,0,0,0-1.13-.14c-.26.08-.38.2-.41.17s0-.2.34-.36a1.65,1.65,0,0,1,1.34,0,4.51,4.51,0,0,1,1.65,1.05,2.12,2.12,0,0,1,.57,1.09,1.56,1.56,0,0,1-.34,1.33,1.42,1.42,0,0,1-1.47.43,4.79,4.79,0,0,1-1.16-.54,2.38,2.38,0,0,1-1.28-1.65v0a1.86,1.86,0,0,1,.08-1.07C146.62,230,146.75,229.88,146.77,229.9Z" style="fill:#ff9a6c"></path><path d="M147.78,234.56a2,2,0,0,1,1.34-.28,5.86,5.86,0,0,1,2,.59,2.91,2.91,0,0,1,1.33,1,2.3,2.3,0,0,1,.33,1.53,5.79,5.79,0,0,1-.33,1.2,1.62,1.62,0,0,1-1.66,1.2v-.18a.85.85,0,0,0-.22-.93,2.62,2.62,0,0,0-.89-.51,7.36,7.36,0,0,1-1.49-.8,2.42,2.42,0,0,1-.93-1.34A1.45,1.45,0,0,1,147.78,234.56Z" style="fill:#ffbf9d"></path><path d="M147.78,234.56s-.14.15-.28.44a1.52,1.52,0,0,0,0,1.32,3.15,3.15,0,0,0,1.56,1.34c.38.18.79.31,1.24.55a1.2,1.2,0,0,1,.69,1.51l0-.1v.19l-.21-.27a1.15,1.15,0,0,0,1.07-.48,2.32,2.32,0,0,0,.36-.72,5.41,5.41,0,0,0,.24-.79,2.09,2.09,0,0,0-.19-1.44,1.9,1.9,0,0,0-1-.89,8.22,8.22,0,0,0-1.15-.53,4.07,4.07,0,0,0-1.76-.28c-.42,0-.63.19-.65.15s.15-.23.61-.35a3.77,3.77,0,0,1,1.92.13,8.6,8.6,0,0,1,1.23.5,2.32,2.32,0,0,1,1.19,1.06,2.52,2.52,0,0,1,.26,1.74,5.53,5.53,0,0,1-.25.87,2.5,2.5,0,0,1-.45.87,1.6,1.6,0,0,1-1.55.66l-.24,0,0-.23,0-.18v-.06l0,0c.14-.27-.1-.68-.47-.86s-.81-.37-1.19-.57a3.36,3.36,0,0,1-1.67-1.61,1.64,1.64,0,0,1,.12-1.54C147.56,234.61,147.77,234.54,147.78,234.56Z" style="fill:#ff9a6c"></path><path d="M147.68,240.77a2.5,2.5,0,0,1,2-.4,3.72,3.72,0,0,1,2.18.87,2.11,2.11,0,0,1,.45,2.31c-.33.76-1.94,1.3-2.81,1.31l.13-.44a6.09,6.09,0,0,1-1.31-.75,2.6,2.6,0,0,1-1-1.34A1.58,1.58,0,0,1,147.68,240.77Z" style="fill:#ffbf9d"></path><path d="M147.68,240.77a2,2,0,0,0-.31,1.23c.08.82,1,1.69,2.32,2.2l.19.08-.06.21-.12.44-.24-.32a4.46,4.46,0,0,0,2.12-.69,1.23,1.23,0,0,0,.45-.46,1.81,1.81,0,0,0,.15-.65,2,2,0,0,0-.36-1.21,3.18,3.18,0,0,0-2-1,3.64,3.64,0,0,0-1.58,0c-.36.1-.53.25-.56.21s.1-.23.49-.4a4.12,4.12,0,0,1,4,.94,2.37,2.37,0,0,1,.49,1.52,2.33,2.33,0,0,1-.19.85,1.77,1.77,0,0,1-.63.67,4.69,4.69,0,0,1-2.41.75l-.34,0,.1-.33.14-.44.13.29a5.54,5.54,0,0,1-1.71-1.13,2.31,2.31,0,0,1-.7-1.48,1.55,1.55,0,0,1,.3-1C147.54,240.81,147.67,240.75,147.68,240.77Z" style="fill:#ff9a6c"></path><path d="M147.63,249.33a3.15,3.15,0,0,0,2.28-.23,1.94,1.94,0,0,0,1-1.89,2.06,2.06,0,0,0-2-1.6,3.16,3.16,0,0,0-2.44,1.18,1.6,1.6,0,0,0-.45,1.18,1.34,1.34,0,0,0,.65.91,4.55,4.55,0,0,0,1.09.45" style="fill:#ffbf9d"></path><path d="M147.81,249.33s-.21,0-.55-.08a1.94,1.94,0,0,1-1.27-.9,1.31,1.31,0,0,1,0-1.16,3.23,3.23,0,0,1,.78-1,3,3,0,0,1,2.72-.76,2.42,2.42,0,0,1,1.29.82,1.85,1.85,0,0,1,.4,1.4,2.27,2.27,0,0,1-1.5,1.76,2.94,2.94,0,0,1-1.54.11c-.35-.07-.53-.16-.52-.19a5.68,5.68,0,0,0,1.92-.26,2,2,0,0,0,1.17-1.48,1.66,1.66,0,0,0-1.36-1.66,2.64,2.64,0,0,0-2.27.63c-.6.49-1,1.15-.77,1.63a1.87,1.87,0,0,0,1,.87C147.64,249.21,147.82,249.29,147.81,249.33Z" style="fill:#ff9a6c"></path><path d="M145.36,250.13c.4-.56,1.09-.48,1.78-.33a1,1,0,0,1,.44.09h0l.13.07a1.79,1.79,0,0,1,.55.64,1.91,1.91,0,0,1,.25,1.5,1.49,1.49,0,0,1-.76.82,2,2,0,0,1-2.32-.49A1.91,1.91,0,0,1,145.36,250.13Z" style="fill:#ffbf9d"></path><path d="M145.36,250.13a2.79,2.79,0,0,0-.12,1.51,1.59,1.59,0,0,0,1,1.09,1.65,1.65,0,0,0,1.74-.31,1.17,1.17,0,0,0,.21-1.3,1.8,1.8,0,0,0-.73-1l-1.11-.53,1.21.12h0l-.06.42h0a1.15,1.15,0,0,0-.34-.09h-.05a2.34,2.34,0,0,0-1.3-.09c-.29.1-.41.26-.44.23s0-.23.35-.43a2.24,2.24,0,0,1,1.47-.1h0a1.11,1.11,0,0,1,.53.1l0,0h0l-.06.43h0l.11-.41a2.17,2.17,0,0,1,1,1.25,2.1,2.1,0,0,1,.14.92,1.58,1.58,0,0,1-.45.91,2.09,2.09,0,0,1-2.29.4,2,2,0,0,1-1.21-1.45,2,2,0,0,1,.17-1.25C145.2,250.21,145.33,250.11,145.36,250.13Z" style="fill:#ff9a6c"></path><path d="M81.53,237.65a13.1,13.1,0,0,1,1.8-5.12,12.85,12.85,0,0,1,3.36-4.25c.12.11-1.49,1.91-2.9,4.5S81.69,237.69,81.53,237.65Z" style="fill:#ff9a6c"></path></g></svg>
